<?xml version="1.0" encoding="UTF-8" standalone="no"?>
<!-- Created with Inkscape (http://www.inkscape.org/) -->

<svg
   xmlns:dc="http://purl.org/dc/elements/1.1/"
   xmlns:cc="http://creativecommons.org/ns#"
   xmlns:rdf="http://www.w3.org/1999/02/22-rdf-syntax-ns#"
   xmlns:svg="http://www.w3.org/2000/svg"
   xmlns="http://www.w3.org/2000/svg"
   xmlns:sodipodi="http://sodipodi.sourceforge.net/DTD/sodipodi-0.dtd"
   xmlns:inkscape="http://www.inkscape.org/namespaces/inkscape"
   width="297mm"
   height="210mm"
   viewBox="0 0 1052.3622 744.09448"
   id="svg4444"
   version="1.1"
   inkscape:version="0.91 r13725"
   sodipodi:docname="aguia.svg">
  <defs
     id="defs4446" />
  <sodipodi:namedview
     id="base"
     pagecolor="#ffffff"
     bordercolor="#666666"
     borderopacity="1.0"
     inkscape:pageopacity="0.0"
     inkscape:pageshadow="2"
     inkscape:zoom="0.7"
     inkscape:cx="524.34663"
     inkscape:cy="390.18141"
     inkscape:document-units="px"
     inkscape:current-layer="layer1"
     showgrid="false"
     inkscape:window-width="1920"
     inkscape:window-height="1011"
     inkscape:window-x="0"
     inkscape:window-y="45"
     inkscape:window-maximized="1" />
  <metadata
     id="metadata4449">
    <rdf:RDF>
      <cc:Work
         rdf:about="">
        <dc:format>image/svg+xml</dc:format>
        <dc:type
           rdf:resource="http://purl.org/dc/dcmitype/StillImage" />
        <dc:title />
      </cc:Work>
    </rdf:RDF>
  </metadata>
  <g
     inkscape:label="Camada 1"
     inkscape:groupmode="layer"
     id="layer1"
     transform="translate(0,-308.26772)">
    <g
       id="g4221"
       style="fill:#808080"
       transform="matrix(0.47370687,0,0,0.48416685,99.85728,288.14989)">
      <path
         style="fill:#808080"
         d="m 769.87832,981.15608 c 2.42614,-9.7479 5.63074,-17.1867 10.52846,-24.4397 13.93626,-20.1065 38.22887,-40.9169 64.41968,-41.6582 7.5158,0 10.77612,1.4758 12.09605,5.4754 1.12047,3.395 0.10772,8.6961 -2.1903,11.465 -2.21963,2.6746 -9.51215,5.1915 -22.86951,7.8931 -7.07985,1.432 -13.24899,2.7058 -13.70925,2.8308 -1.92005,0.5216 9.014,7.0922 17.74689,10.6646 14.84126,5.5482 17.2715,18.6233 17.40414,30.005 0.0946,9.082 -0.17712,10.6982 -2.64093,15.7095 -2.27348,4.62452 -3.75077,6.16312 -8.58127,8.93752 -8.19837,4.709 -18.65678,7.1678 -18.50039,4.3496 16.47988,-11.1214 17.18311,-29.72552 1.48239,-42.19032 -3.46359,-2.5692 -4.89812,-2.9874 -9.91644,-2.8905 -9.63565,0.1861 -15.21545,6.1657 -16.09676,17.25 -0.29552,3.7173 -0.15582,3.9092 3.51422,4.8276 4.04387,1.012 11.63264,-0.3772 16.80564,-3.0764 5.52497,-2.8827 7.97233,-1.192 4.17483,2.8842 -5.52744,8.535 -18.58044,12.75852 -27.95642,12.92722 l -8.60241,0 1.82878,3.1779 c 1.00586,1.7479 3.42326,4.9149 5.37206,7.0378 5.02082,5.4695 7.08641,7.954 7.08641,8.5242 0,0.272 -3.53057,0.4877 -7.84567,0.4792 -16.54257,-0.1745 -26.68556,-26.31402 -23.5502,-40.18352 z m 159.14376,16.0197 c -2.49539,-7.1582 -3.57171,-21.8935 -2.37067,-32.4557 -0.44737,-2.8895 3.28342,-12.877 2.19225,-14.2292 -6.74326,7.1201 -12.76864,28.8365 -13.17432,38.1618 0,4.1628 -1.70689,1.6631 -3.57382,-5.2338 -2.77828,-10.2638 -1.53439,-26.7671 2.78719,-36.9775 5.40916,-12.7801 10.44431,-19.5627 26.09524,-35.1517 7.79464,-7.7637 13.60704,-11.3554 18.43965,-11.3945 4.38507,-0.036 4.81049,2.2841 2.68805,14.6569 -1.05065,6.1247 -2.31252,13.6416 -2.80411,16.7039 -0.49159,3.0625 -1.36836,7.3902 -1.94832,9.6174 -0.57995,2.2272 -1.34455,6.7829 -1.69903,10.1236 -0.52488,4.9464 -4.6968,28.8842 -7.18967,41.2531 -0.78988,3.9193 -3.25862,3.4587 -5.10133,-0.9515 -1.27968,-3.0627 -1.36188,-4.7489 -0.45652,-9.3642 0.60732,-3.0957 1.35022,-11.3231 1.65085,-18.283 l 0.54666,-12.6544 c -3.51161,6.0526 -5.14641,12.9927 -6.50549,18.7689 -0.7518,3.0401 -2.17694,9.3997 -3.16701,14.1324 -0.99008,4.7327 -2.60294,10.3282 -3.58427,12.4344 l -1.78407,3.82942 -1.0411,-2.98632 z m -92.31584,-48.7096 c -2.50559,-0.2784 -4.46095,-0.9524 -4.3453,-1.4978 0.11557,-0.5454 3.16183,-1.5363 6.76934,-2.2021 9.57508,-1.7673 19.22563,-6.6308 23.33308,-11.7589 1.44044,-1.7984 3.04926,-3.8004 3.57511,-4.4487 3.23837,-3.9928 1.26317,-11.7985 -3.89534,-15.3936 -3.41718,-2.3814 -11.81357,-5.1934 -15.50749,-5.1934 -2.87927,0 -3.51113,0.2271 -9.76758,3.5099 -4.36718,2.2914 -5.45678,1.0398 -3.49632,-4.016 1.20064,-3.0963 1.59335,-8.4578 1.66835,-22.7778 0.0907,-17.31184 -0.1146,-19.57066 -2.71414,-29.86418 -1.85883,-7.36048 -4.73615,-14.99991 -8.48693,-22.53357 -5.50108,-11.04931 -6.25645,-14.33373 -2.57726,-11.20603 0.97784,0.83122 3.60005,2.29805 5.82721,3.25961 2.22716,0.96156 5.8716,2.69146 8.09876,3.84421 15.07996,7.80524 47.37722,23.08739 48.81678,23.09881 0.43344,0 2.15475,0.72128 3.82512,1.59522 4.06598,2.12738 32.59028,11.55902 34.95811,11.55902 3.71263,0 3.10433,2.23753 -2.03198,7.47418 -5.311,5.41493 -6.4841,7.07473 -10.09971,14.29123 -2.68433,5.3576 -2.59006,6.4339 0.6726,7.6744 2.14018,0.8137 3.64776,0.6416 6.83332,-0.7797 4.33276,-1.9332 12.93898,-9.7425 14.01328,-12.7157 0.35205,-0.9743 1.38651,-1.7716 2.29875,-1.7716 2.60254,2.2886 -10.15437,27.4839 -10.97762,28.8352 -13.39591,21.5702 -31.88844,35.2946 -53.17658,39.4655 -8.16816,1.6004 -25.8356,2.416 -33.61356,1.5518 z m 181.71586,-40.1076 c -5.2513,-0.7961 -16.1535,-3.5921 -17.2099,-4.4136 -0.5568,-0.433 -2.15119,-1.1253 -3.54321,-1.5384 -1.39193,-0.4132 -5.26419,-2.57 -8.60493,-4.7928 -4.93676,-3.2848 -7.4809,-4.2323 -13.58744,-5.0606 -8.43721,-1.1443 -14.38363,-0.2404 -25.34433,3.8523 -4.36749,1.6308 -6.87341,2.1042 -7.55136,1.4262 -0.67786,-0.6778 -0.30346,-1.5127 1.12824,-2.5154 16.63619,-14.5016 22.25618,-40.37805 22.57714,-59.35347 0,-7.53135 -1.75565,-20.96233 -2.96017,-22.64532 -0.39846,-0.55679 -1.34132,-3.06234 -2.09523,-5.5679 -0.75392,-2.50555 -1.74707,-4.98832 -2.20708,-5.51727 -1.32382,-1.5224 -0.97962,-2.58148 0.83904,-2.58148 16.64634,11.38345 21.61525,39.73463 23.31194,56.56154 l 0.72224,6.70998 0.93274,-4.04938 c 4.57701,-29.94943 -1.1263,-68.4711 -35.35657,-79.36189 -3.95754,-1.17251 -7.67673,-2.13182 -8.26494,-2.13182 -0.58814,0 0.17703,2.61943 1.70049,5.82097 1.52338,3.20154 3.35248,7.41543 4.0646,9.36419 0.71221,1.94876 1.669,4.45431 2.12625,5.56789 2.15168,5.23976 5.03872,24.91801 5.03694,34.33151 0,7.79058 -2.29235,22.62258 -3.98175,25.77915 -0.59453,1.11099 -1.8283,1.80586 -2.83692,1.5978 -0.98173,-0.20239 -5.65706,-1.1041 -10.38981,-2.00379 -9.23258,-1.755 -36.64654,-8.99537 -39.9876,-10.56113 -1.11357,-0.52186 -5.66912,-2.36206 -10.12344,-4.08932 -4.45431,-1.72726 -9.45465,-3.68775 -11.11189,-4.35663 -4.63986,-1.87273 -30.20091,-14.92668 -31.91274,-16.29773 -0.83523,-0.66893 -3.22687,-2.09447 -5.31481,-3.16789 -2.12738,-1.09367 -3.79629,-2.70646 -3.79629,-3.66856 0,-1.56784 0.26256,-1.58591 3.0244,-0.20812 1.6634,0.82982 5.87727,2.35444 9.36418,3.38804 6.73825,1.99738 10.25003,3.1187 15.95706,5.09508 1.94872,0.67487 8.55431,2.10134 14.67899,3.16993 16.84339,2.93871 31.05962,1.42149 40.5448,-4.32717 6.83211,-4.14069 9.0689,-8.35495 9.03084,-17.01508 -0.0502,-11.43347 -5.11388,-22.34104 -13.80174,-29.72956 -5.76566,-4.90343 -5.99121,-5.06673 -8.94677,-6.47998 -12.31716,-5.88956 -18.95587,-7.84059 -33.77181,-9.9251 -5.48998,-0.77239 -10.2084,-1.63098 -10.48538,-1.90796 -1.44587,-1.4459 20.43721,-6.1164 36.15843,-7.71728 21.53815,-2.1932 71.42786,-1.09513 90.09864,1.9831 3.06239,0.50487 9.44016,1.44946 14.17285,2.09907 4.7327,0.6496 9.9716,1.56821 11.6419,2.04134 1.6704,0.47313 6.4538,1.36413 10.6297,1.97998 15.419,2.27397 20.2211,4.8856 20.2664,11.02193 0.03,4.02973 2.243,11.18891 5.201,16.82329 10.4035,16.86728 26.4698,26.2525 45.9028,28.30603 26.3158,2.37064 67.9126,10.56566 69.8927,13.76961 0.4665,0.75471 -3.7252,1.4528 -6.7163,1.11852 -24.7274,2.64048 -59.0808,11.59775 -78.8677,27.22089 -2.1571,1.78262 -2.2319,2.01416 -0.5062,1.56849 1.1136,-0.28767 5.6692,-1.47584 10.1235,-2.64036 16.033,-4.19183 27.5495,-6.14881 39.8733,-6.77566 10.5413,-0.53622 12.4651,-0.4102 12.0699,0.79076 -0.2737,0.83167 -2.1298,1.55092 -4.4413,1.72107 -13.5046,3.84674 -39.6227,17.83208 -50.0328,28.53949 -0.2783,0.3378 -4.6062,3.9913 -9.6173,8.1187 -5.0111,4.1275 -9.3388,7.7547 -9.6172,8.0605 -11.9256,10.7286 -33.5784,14.4258 -48.0864,12.5733 z M 661.21936,833.30542 c -9.86706,-19.20236 -9.93977,-42.49559 -1.55116,-60.58257 2.95645,-6.25743 9.51685,-13.84354 19.86916,-22.97577 6.22576,-5.49208 26.32994,-13.76542 38.7246,-15.93612 3.61909,-0.63384 7.03579,-1.51784 7.59258,-1.96448 0.55679,-0.44663 2.15119,-0.80735 3.54321,-0.8016 17.38959,-3.73338 34.93029,-11.46726 49.00167,-18.3425 14.72467,-7.21625 24.59438,-11.85055 33.66652,-15.80798 9.32945,-4.06965 35.97103,-6.96618 47.18853,-5.13043 9.82768,1.6083 9.87813,2.48227 0.22952,3.97573 -27.74311,7.1804 -48.17133,18.43538 -66.95937,35.5779 -2.07887,2.07892 -1.46506,1.96566 8.57747,-1.58253 12.63025,-4.46245 38.23843,-8.62561 45.7276,-7.43399 l 4.55554,0.72484 -4.04937,1.00174 c -4.16561,0.89688 -7.84182,3.61237 -10.98208,5.18829 -15.35414,8.11609 -26.69537,19.72928 -40.4949,29.12682 -0.60846,0.38731 -0.78032,1.03015 -0.38194,1.42852 0.9759,0.97593 35.46736,1.09167 46.54411,0.1562 5.14975,-0.43492 8.85801,-0.36532 8.85801,0.16625 0,2.48563 -21.65631,13.88872 -34.92588,18.39017 -5.0111,1.69992 -9.9021,3.51347 -10.86893,4.03009 -0.96683,0.51663 -2.73041,0.93933 -3.91907,0.93933 -1.70738,0 -0.41789,1.74323 6.14169,8.30276 10.16256,10.16259 18.85949,22.82144 16.9741,24.7068 -0.33326,0.3333 -3.07032,-0.55984 -6.08233,-1.98475 -3.012,-1.42491 -8.16605,-3.57079 -11.4535,-4.76861 -3.28744,-1.19784 -8.25489,-3.20941 -11.03884,-4.47019 -2.78395,-1.26077 -7.56732,-3.09461 -10.62962,-4.0752 -3.06238,-0.98059 -6.02345,-2.06389 -6.58023,-2.40735 -1.79736,-1.10869 -15.91948,-4.22151 -26.32096,-5.80168 -13.57626,-2.0625 -26.6679,-1.2662 -37.88046,2.30411 -4.69185,1.49397 -9.36305,3.54881 -10.38058,4.56631 -1.01753,1.01749 -2.25502,1.85 -2.75009,1.85 -14.149,8.84475 -24.72516,32.50849 -18.33445,43.68712 7.29456,17.56295 -17.26879,-5.44216 -21.61055,-12.05723 z m 38.31423,-39.52121 c 1.67037,-0.99533 5.08699,-2.41932 7.59258,-3.1644 2.50551,-0.7451 5.92222,-1.9415 7.59259,-2.65868 16.38327,-2.99608 64.24517,-3.25487 75.19102,4.87956 0.70945,0.56353 1.52013,0.79435 1.80157,0.51291 0.28143,-0.28144 -2.77715,-3.53987 -6.79688,-7.24096 -4.26505,-3.92697 -6.91237,-7.07869 -6.35712,-7.56834 0.52326,-0.46149 3.68477,-1.40005 7.02551,-2.08569 3.34073,-0.68564 7.66846,-1.63225 9.61727,-2.10358 1.94872,-0.47134 6.04871,-1.18024 9.1111,-1.57535 3.0623,-0.39511 6.39777,-1.02452 7.41206,-1.39871 -13.19822,-2.4073 -24.81938,-4.77063 -37.70853,-6.32021 -10.7679,-3.92819 22.72035,-18.10451 28.27178,-25.04345 -6.09377,1.56617 -13.95036,3.91945 -20.57173,5.97969 -4.15903,1.50012 -25.99611,2.60999 -25.99611,1.32128 3.35897,-4.33019 27.59654,-21.1708 26.91289,-23.22863 -0.42907,-1.11812 -0.0786,-1.35032 1.35395,-0.89581 1.0632,0.33746 2.19606,0.18806 2.5175,-0.33198 -27.14973,23.48021 -74.74935,12.79023 -99.28425,32.91871 -10.11972,10.11971 -12.54894,27.53611 -4.93158,35.35699 1.13367,1.16397 2.97233,2.63068 4.08591,3.25933 3.06497,1.73031 9.75081,1.41905 13.16047,-0.61268 z m -5.19932,-16.57663 c -2.47619,-1.199 -4.41795,-4.89228 -4.41795,-8.4032 3.30986,-13.66898 25.88992,-16.00636 36.19131,-21.82321 l 3.29012,-1.92864 c 0.11682,2.14775 -0.21408,4.66232 -1.7716,6.03389 -2.96261,2.49239 -12.36915,9.08299 -12.96384,9.08299 -0.95452,0 -7.53606,5.52571 -7.53614,6.32715 1.05386,1.20146 2.34555,0.73703 2.53086,-0.25308 -0.87604,-1.41747 0.85936,-1.26657 2.3284,0.20247 1.82367,1.82367 1.49908,3.16385 -1.60963,6.64584 -4.4088,4.93819 -10.9023,6.60424 -16.04153,4.11579 z m 398.02343,26.88089 c -3.8786,-0.77007 -9.1175,-2.17379 -11.642,-3.11936 -11.3845,-4.59535 -15.5335,-9.39529 -21.102,-15.51855 -5.0025,-5.36955 -9.8344,-21.57949 -7.0054,-23.5014 0.6852,-0.46548 4.4347,-0.57477 8.3322,-0.24286 13.9349,1.18669 57.6192,-2.31375 70.3579,-5.63781 12.2607,-2.40154 21.0052,-5.78482 32.5957,-7.32232 -0.4191,8.18573 -18.826,18.09489 -19.3026,19.94001 18.7402,-1.16922 21.6662,10.84718 1.8921,15.1559 -2.2272,0.35613 -4.0494,1.01461 -4.0494,1.46327 0,1.08227 12.4037,4.98718 18.4878,5.82022 2.6516,0.36309 5.0256,0.99116 5.2756,1.39576 -8.1135,6.68012 -18.5063,10.15961 -29.2642,12.15056 -8.3852,1.46996 -36.0578,1.10777 -44.5757,-0.58342 z m -58.2443,-53.08136 c -19.5516,-1.92203 -29.1665,-4.08138 -24.0432,-5.39967 0.696,-0.17909 5.5933,-1.37731 10.8827,-2.66271 5.2896,-1.2854 10.984,-2.91506 12.6543,-3.62145 1.6704,-0.70639 5.7704,-2.31962 9.1111,-3.58494 8.3307,-4.32475 17.2418,-7.31068 25.259,-12.2822 13.6785,-8.65465 16.9478,-11.02479 14.395,-10.43613 -1.5754,0.36331 -7.2699,1.59828 -12.6543,2.74439 -5.3844,1.14611 -13.8898,2.97316 -18.9009,4.06014 -36.2364,7.86012 -67.9967,7.92093 -116.2038,0.22245 -26.02397,-4.15593 -27.71078,-4.38363 -44.16235,-5.96148 -21.85133,-2.09577 -41.90481,-1.82331 -58.80643,0.79899 -0.83522,0.12957 -1.63441,-0.21996 -1.77598,-0.77675 -0.14164,-0.55679 2.36395,-2.08537 5.5679,-3.39686 3.20395,-1.31147 6.73646,-2.78745 7.85004,-3.27997 6.23313,-2.7568 20.32966,-4.30241 42.51846,-4.66192 24.18539,-0.39187 30.65354,0.19063 72.88879,6.56404 7.39692,1.11621 17.4239,1.67082 29.86416,1.65184 80.82741,-16.16463 142.40791,-42.99967 221.95641,-57.10494 -6.3133,28.25968 -54.3356,48.79305 -74.1274,58.20312 l 14.9187,-0.17769 c 22.012,-0.26215 43.9851,-2.18835 55.9186,-4.90188 1.392,-0.31652 5.7198,-1.21653 9.6173,-2.00001 11.3254,-2.27668 14.9867,-3.20433 18.2222,-4.61694 7.9663,-3.02604 16.488,-5.02074 24.0294,-9.06684 5.1804,-1.1538 16.7498,-10.66458 18.016,-9.45512 -1.062,6.59736 -25.9878,19.57812 -31.321,22.64937 -21.5377,11.1088 -53.1138,27.10058 -73.8927,30.85289 -19.4796,5.36228 -41.0428,9.73663 -59.3254,12.08372 -6.6814,0.84611 -16.0203,2.04034 -20.753,2.65384 -11.1018,1.43914 -46.5982,1.99444 -57.7036,0.90271 z m -210.56763,-2.91169 c 0,-0.51601 1.25279,-1.60979 2.78394,-2.43065 17.64773,-10.386 33.08663,-14.19878 52.38882,-17.96171 9.84055,-1.89608 47.45036,-1.61524 66.30855,0.49514 25.57182,2.86169 44.47706,3.86709 64.11522,3.4097 11.5374,-0.0564 20.8621,-1.04513 27.6549,-1.5701 12.8575,-0.50325 1.3567,1.85999 -2.4711,3.66889 -4.1825,2.09675 -17.4844,5.6124 -27.546,7.28033 -18.47773,3.06305 -19.26137,3.06308 -69.3456,0.002 -30.14931,-1.84246 -66.69543,-1.00538 -81.99989,1.87819 -2.78395,0.52453 -10.7562,2.13474 -17.71602,3.57824 -14.20992,2.9472 -14.17282,2.94288 -14.17282,1.64959 z M 679.79288,737.11651 c 0,-0.42972 2.03068,-2.99317 4.51262,-5.69654 8.14541,-9.69797 11.92565,-17.11561 17.19309,-27.60671 3.35272,-6.58639 5.45281,-12.51756 7.64612,-21.59436 1.27814,-5.2895 2.70449,-10.52838 3.16977,-11.64196 1.86911,-4.47349 2.8719,-22.64207 1.84692,-33.46042 -2.77966,-27.95728 -12.67888,-41.92986 -30.6222,-60.27946 -3.22906,-3.28681 -5.60507,-5.97603 -5.2799,-5.97603 0.32508,0 -0.67746,-1.31491 -2.22781,-2.922 -13.88175,-14.38968 -20.93941,-21.37426 -21.59808,-21.37426 -0.4298,0 -1.9437,-1.38116 -3.36406,-3.06923 -1.42044,-1.68809 -2.87781,-3.16864 -3.23869,-3.29012 -45.68051,-52.74486 -91.56586,-77.27012 -111.3403,-142.45526 -0.90423,-3.06234 -2.01108,-6.47901 -2.45975,-7.59259 -0.44859,-1.11357 -1.31289,-4.53024 -1.92054,-7.59258 -0.60765,-3.06234 -1.86231,-9.21233 -2.78824,-13.66665 -2.56196,-12.32474 -3.12742,-52.40313 -0.9363,-66.35753 1.71564,-10.92631 4.48372,-22.34748 5.63131,-23.23493 0.35999,-0.2784 1.26624,-2.78395 2.01383,-5.5679 1.22122,-4.54725 3.18435,-8.99628 9.26903,-21.00614 1.82481,-3.60181 3.90076,-5.04995 3.90076,-2.72109 0,0.59137 -0.65413,3.21082 -1.45356,5.82098 -4.80491,15.68718 -5.72298,19.57072 -5.0946,21.55064 0.42769,1.34741 0.30589,1.93905 -0.31958,1.55249 -0.61899,-0.38257 -1.2383,2.21613 -1.59821,6.70655 -0.32322,4.0321 -0.88649,10.48537 -1.25174,14.34056 -0.36517,3.85521 -0.1768,10.0052 0.4187,13.66665 0.59559,3.66146 1.61457,10.95694 2.26442,16.21217 0.64992,5.25523 1.54896,10.26633 1.99788,11.13578 0.44891,0.86946 1.81258,4.93066 3.03031,9.02489 2.61889,8.80509 10.14142,24.30726 14.56164,30.008 3.42545,4.41788 10.97576,11.73701 11.53295,11.17982 0.19154,-0.19161 -0.0921,-1.18995 -0.63024,-2.21856 -1.40093,-2.67745 -3.99828,-9.53474 -4.73454,-12.49979 -0.34565,-1.39198 -1.0283,-3.44197 -1.51689,-4.55555 -6.55019,-14.92759 -7.98019,-70.9094 -2.14634,-84.02458 0.49532,-1.11358 1.74917,-4.86613 2.78622,-8.33899 1.03713,-3.47288 2.51653,-6.55638 3.28745,-6.85224 1.15974,-0.445 1.283,0.99529 0.71406,8.33901 -0.77837,10.04697 0.71447,28.68479 3.14362,39.24724 0.89628,3.89752 3.19123,11.64196 5.09986,17.20985 1.90855,5.5679 3.71636,11.14844 4.01723,12.40122 0.30087,1.25277 0.84591,2.27777 1.21125,2.27777 0.36525,0 1.56492,1.70833 2.66586,3.79629 1.10103,2.08796 2.36071,4.25185 2.79926,4.80864 2.16803,2.75256 9.83221,13.68387 9.83221,14.02367 0,0.2139 2.01205,2.38497 4.47124,4.82459 5.80648,5.76026 12.0997,8.97201 18.90768,9.64952 4.59555,0.45732 5.82446,0.21112 7.66587,-1.53577 3.99617,-3.79108 4.47408,-22.72698 0.79125,-31.35089 -3.55633,-8.32767 -7.02551,-14.30746 -10.3366,-17.81704 -3.75564,-3.9808 -13.77436,-11.70761 -15.18031,-11.70761 -2.03538,0 -6.30399,-2.64996 -6.31128,-3.91797 -0.008,-1.06622 1.33873,-1.28356 5.81313,-0.93952 10.02488,0.77081 26.21502,11.96763 42.41018,29.33021 5.04471,5.40831 16.55887,21.96881 16.55887,23.81611 0,0.72382 0.34242,1.31604 0.76088,1.31604 0.72589,0 3.22274,4.99892 8.59586,17.20985 3.48627,7.92308 7.25227,20.73932 9.96527,33.91353 0.68799,3.34074 1.59991,6.47368 2.02647,6.9621 1.45454,1.66518 3.18557,-7.80565 2.47522,-13.54233 -0.37918,-3.06235 -0.89629,-8.75678 -1.14913,-12.65431 -0.25284,-3.89752 -1.17594,-9.96393 -2.05125,-13.4809 -0.87531,-3.51697 -1.29896,-6.68709 -0.94132,-7.0447 0.35756,-0.35761 1.88377,0.5523 3.39152,2.02205 46.93197,56.78931 100.41266,118.78481 150.03736,163.86702 0.27835,0.33945 1.53115,1.15696 2.78394,1.81669 2.85052,1.50112 2.91353,4.4389 0.24621,11.46683 -2.16286,5.69844 -5.19997,9.98761 -11.4646,16.19088 -5.28144,5.22965 -6.72124,5.02684 -6.87017,-0.96774 -0.35335,-14.2204 -1.69896,-21.45068 -4.5166,-24.26829 -1.77257,-1.77255 -2.34418,-1.62157 -1.81064,0.4782 0.52181,2.05323 -3.9479,24.29376 -5.45993,27.16833 -0.56036,1.06511 -1.33905,3.87029 -1.73055,6.23373 -0.39149,2.36343 -1.09454,4.53367 -1.56225,4.82273 -0.4677,0.28907 -1.37695,2.22757 -2.02047,4.30777 -1.19554,3.86455 -2.51693,6.88774 -8.06887,18.46119 -5.15429,10.74442 -9.09822,17.69147 -10.2693,18.08888 -0.65843,0.22341 -0.85831,-0.38522 -0.49881,-1.51852 0.33003,-1.04026 0.8213,-4.07922 1.0918,-6.75326 0.27041,-2.67404 0.76525,-5.30453 1.09965,-5.84556 1.31369,-2.1256 3.08878,-24.36975 2.88283,-36.12563 -0.18854,-10.75933 -1.84077,-23.55648 -4.40969,-34.15446 -0.62677,-2.58586 -0.84049,-2.05949 -1.43834,3.5432 -1.84781,17.31648 -3.01914,25.45205 -4.73664,32.90119 -2.30199,9.98374 -5.76194,22.59782 -6.94201,25.30861 -0.48479,1.11358 -1.67433,4.30246 -2.64343,7.08641 -3.89639,11.1935 -13.89244,31.58347 -16.874,34.4197 -1.54629,1.47089 -0.14035,-9.45916 3.38552,-26.32095 1.52929,-7.31312 2.2355,-45.74614 1.06969,-58.2098 -1.29702,-13.86632 -5.20653,-39.50716 -6.36198,-41.72499 -0.49775,-0.95556 -1.33476,-3.46111 -1.85988,-5.56789 -3.44359,-13.81517 -5.1994,-20.28387 -5.98587,-22.0527 -0.49508,-1.11358 -2.38176,-5.8969 -4.19248,-10.62961 -4.55142,-11.89593 -13.12889,-29.0046 -16.16252,-32.23787 -1.38708,-1.47841 -2.53823,-3.14357 -2.558,-3.70036 -0.0445,-1.24502 -5.32841,-8.34641 -8.27546,-11.12149 -5.92594,-5.5802 -9.65202,-8.77167 -9.87635,-8.45938 -0.13687,0.19048 -0.9853,3.84618 -1.88548,8.12376 -2.1933,10.42215 -7.96431,21.99711 -13.79242,27.66345 -2.57151,2.50009 -4.99644,4.54587 -5.38883,4.54617 -0.3923,3.1e-4 -0.97573,-1.70778 -1.29636,-3.79574 -2.47717,-16.12941 -7.61777,-33.61439 -12.73513,-43.31617 -2.33836,-4.43316 -4.87456,-8.42461 -5.63601,-8.86986 -0.76144,-0.44526 -1.38448,-1.20744 -1.38448,-1.69373 0,-1.53271 -6.30925,-7.26907 -10.25983,-9.32823 -4.62989,-2.41325 -16.40702,-2.67401 -21.37431,-0.47327 -7.30395,2.13611 -10.37073,9.43563 -12.15323,15.65796 -3.52161,16.06919 2.78843,37.39264 12.91087,50.50048 28.89299,40.79448 70.22284,82.16216 88.15373,125.09948 0.75018,2.09966 2.00849,5.28855 2.79633,7.08641 12.93473,26.35269 5.44595,80.43903 16.82816,73.5782 22.25693,-13.63987 41.90775,-28.84317 58.18259,-45.03337 11.66852,-11.62902 20.85639,-21.52948 22.98701,-24.76982 5.21713,-8.66472 26.68561,-29.82318 27.18769,-27.33329 -2.78303,9.39417 -10.69429,18.50631 -15.71029,26.32095 -1.548,2.50555 -3.09243,4.78332 -3.43201,5.06172 -0.33958,0.27839 -1.81048,2.32839 -3.26874,4.55555 -1.45826,2.22716 -3.61909,5.18826 -4.80175,6.58024 -5.34032,6.28545 -8.21926,9.92349 -8.21926,10.38656 0,0.88259 -10.27392,11.98686 -22.27158,24.07152 -9.49627,9.56512 -20.8027,19.68877 -26.83652,24.02909 -0.56197,0.40424 -2.83974,2.23137 -5.06172,4.06029 -2.22197,1.82893 -4.49594,3.65115 -5.05322,4.04938 -0.55727,0.39823 -2.60731,1.9042 -4.55555,3.3466 -6.89009,5.10107 -17.10084,12.05644 -17.69942,12.05644 -0.33359,0 -1.61246,0.95079 -2.84201,2.11285 -1.22948,1.16207 -3.8299,2.99713 -5.77863,4.07791 -11.77197,8.85466 -25.37083,14.72292 -36.95947,21.56145 -2.64295,1.73173 -4.54664,2.07693 -4.54664,0.82445 z m 43.5308,-13.18902 c 0,-1.2957 2.30353,-3.23951 3.83905,-3.23951 8.18002,-2.74869 14.67959,-8.44303 20.8926,-12.5832 16.53531,-11.43547 31.90234,-24.83592 42.6282,-35.50315 28.60684,-27.91413 51.79018,-63.82319 68.15879,-97.69122 0.90974,-1.94877 1.92799,-3.77099 2.2628,-4.04938 0.3348,-0.27839 1.54006,-3.01172 2.67834,-6.07407 1.13828,-3.06234 3.20257,-8.07344 4.58729,-11.13578 1.38465,-3.06234 2.84955,-6.70678 3.25522,-8.09876 0.40566,-1.39197 1.33159,-3.89752 2.05773,-5.56789 0.72613,-1.67037 2.75641,-7.36481 4.51173,-12.6543 1.75533,-5.2895 3.58443,-10.52838 4.0646,-11.64196 0.54432,-3.88766 2.71207,-8.39567 4.13624,-12.76933 2.47467,-7.59971 4.62077,-15.1771 5.87674,-21.14421 0.51184,-2.50555 1.40165,-5.92221 1.97747,-7.59258 1.25369,-3.63638 2.01036,-6.4292 7.26847,-26.82712 5.63563,-15.16566 7.0312,-31.10237 13.07463,-46.06167 13.14384,-33.65962 21.96335,-76.04285 41.3162,-101.52068 0.69601,-0.75728 1.26543,-1.8303 1.26543,-2.38447 0,-1.12422 5.13972,-8.27478 6.32715,-8.80251 0.41758,-0.1856 0.75926,-0.78544 0.75926,-1.33298 0,-2.26992 14.49191,-19.69268 22.18443,-26.67104 2.45765,-2.22944 5.92563,-5.42022 7.70671,-7.09058 8.79424,-8.24773 13.39384,-9.21341 6.10974,-1.28272 -1.90908,2.07847 -4.28291,5.15347 -5.27517,6.83333 -0.99234,1.67987 -2.16155,3.05431 -2.59832,3.05431 -0.43677,0 -0.79408,0.6607 -0.79408,1.46822 0,0.80751 -0.61689,1.83251 -1.37089,2.27777 -0.75399,0.44526 -2.87214,3.54289 -4.70699,6.88363 -1.83486,3.34073 -3.61391,6.30184 -3.95349,6.58024 -1.22939,1.00792 -6.16089,16.85962 -7.24377,23.28391 -2.86421,16.99315 -2.12009,23.28979 3.29036,27.84234 5.52789,4.65143 17.20476,4.49849 23.36885,-0.30608 1.8891,-1.47244 6.298,-6.64714 9.7977,-11.49931 41.6264,-56.75178 86.3806,-127.69707 141.7809,-162.5928 18.6171,-12.32873 36.7371,-18.00198 57.7037,-24.06981 6.8368,-1.98493 19.5431,-4.30821 30.704,-5.61405 11.4824,-1.34343 33.5611,-0.83796 35.2051,0.806 1.4384,1.43838 -0.2286,1.92645 -11.2425,3.29199 -4.7327,0.58676 -10.1994,1.48884 -12.1482,2.00461 -1.9487,0.51577 -7.4154,1.92189 -12.1481,3.12471 -54.243,17.68025 -93.8571,52.73898 -116.2354,98.67916 -0.6342,1.39198 -0.8673,2.53086 -0.518,2.53086 0.3493,0 4.0979,-3.38668 8.3301,-7.52597 4.2323,-4.13929 9.5173,-8.94177 11.7444,-10.67221 2.2272,-1.73043 4.743,-3.71723 5.5907,-4.41511 0.8478,-0.69789 3.8089,-2.82372 6.5803,-4.72406 2.7714,-1.90035 5.8778,-4.2301 6.9031,-5.17722 1.0253,-0.94713 3.9864,-2.78823 6.5803,-4.09135 2.5937,-1.30311 4.9516,-2.68016 5.2395,-3.0601 10.868,-5.68084 21.1018,-10.49675 31.5046,-14.34726 23.1308,-8.66762 43.504,-10.25405 66.0603,-13.05836 2.0758,-0.60237 3.1913,2.23339 1.1738,2.28167 -35.4249,24.65706 -117.8819,51.94027 -115.111,99.06491 38.797,33.72053 125.7092,-67.96326 147.3597,-100.4209 1.6803,-3.2249 4.6779,-5.13074 4.6339,-2.94647 -8.0367,21.9064 -20.2235,48.71555 -32.076,66.17631 -6.1556,9.79744 -12.1422,19.30127 -19.7276,27.39851 -1.4961,1.58356 -2.9801,3.67005 -3.2978,4.63665 -0.3177,0.96661 -2.2824,3.64369 -4.3662,5.94908 -2.0838,2.30538 -5.8387,6.45894 -8.3442,9.23014 -2.5056,2.7712 -5.2737,5.89608 -6.1516,6.94418 -9.3899,15.02276 -36.8377,29.59141 -46.3509,42.37006 0.6041,0.60408 7.4274,-1.59179 12.873,-4.14281 15.6622,-7.1915 29.7422,-12.6094 43.1727,-19.54136 16.7651,-10.0381 32.5807,-19.12618 45.5555,-28.78264 23.905,-13.18386 25.3257,-27.67501 43.1436,-38.17234 1.9028,-1.01831 2.0309,-0.9031 1.3818,1.24223 -4.0079,7.89114 -8.3758,15.87223 -13.4195,22.97631 -9.4076,13.02927 -18.107,25.26826 -28.0689,36.46457 -5.4264,6.0763 -28.2227,28.23783 -32.9011,31.9851 -8.7579,7.01465 -12.5551,10.16147 -14.3019,11.85234 -0.9682,0.93715 -3.0436,2.52801 -4.6119,3.53525 -3.8363,2.46366 -5.2196,3.54833 -7.1973,5.64353 -0.9197,0.97439 -2.0362,1.77161 -2.4813,1.77161 -0.813,0 -8.9305,5.04085 -9.8767,6.13331 -0.6532,0.75409 -19.0739,12.08888 -19.6463,12.08888 -0.2383,0 -3.7737,1.95714 -7.8565,4.3492 -6.8293,4.00128 -16.3973,8.83242 -20.0774,10.13757 -4.0079,1.42144 3.5701,0.4554 14.1728,-1.80672 18.2566,-3.89512 33.3355,-7.9415 37.6909,-10.11427 1.7127,-0.85439 3.6133,-1.55553 4.2238,-1.55809 1.3243,-0.005 16.8687,-5.9595 18.3198,-7.017 0.5568,-0.40577 2.6067,-1.34119 4.5555,-2.0787 7.7094,-2.91764 21.1817,-9.83009 32.6875,-16.77157 4.3368,-2.61639 8.1891,-4.4531 8.5606,-4.0816 0.8456,0.84567 -2.1716,6.54137 -5.1891,9.79561 -1.2502,1.34833 -2.6999,3.20855 -3.2217,4.1338 -2.8669,5.08505 -20.8833,23.94778 -31.8954,33.39403 -16.3958,13.06427 -32.7111,24.43497 -51.5591,33.85913 -12.6885,6.25878 -24.2266,11.48024 -26.7898,12.12359 -4.2065,1.05577 -4.1012,2.5453 0.1413,1.99997 2.1289,-0.27364 7.743,-0.98615 12.4757,-1.58337 20.1696,-4.0205 45.8974,-8.864 60.2423,-22.93268 1.0568,-1.43121 1.654,-1.58583 2.5841,-0.66913 1.4211,1.40054 4.0174,22.01958 4.0564,32.21519 0.035,9.06915 -2.5126,30.46579 -4.6399,38.97526 -14.7434,37.69804 -18.5376,66.19399 -41.5624,102.25071 -2.4657,3.74261 -4.483,7.14368 -4.483,7.55794 0,0.41425 -1.7083,2.92924 -3.7963,5.58885 -2.0879,2.6596 -4.4796,5.86313 -5.3148,7.11895 -33.1308,50.31275 -94.6341,64.17252 -147.296,59.27166 -30.293,-5.77293 -53.21379,-13.70612 -77.69747,-26.9399 -12.64378,-6.55908 -41.66072,-30.28789 -43.58887,-35.64508 -1.03958,-4.7342 18.26487,9.12805 18.78643,9.37918 4.03675,1.87586 7.56732,3.69085 7.84567,4.03332 0.27844,0.34245 4.15061,2.19112 8.60493,4.10815 4.45431,1.91702 8.2506,3.82717 8.43623,4.24476 0.18554,0.41759 0.86891,0.76082 1.51851,0.76273 0.64961,0.002 4.53101,1.36857 8.62542,3.03703 9.35618,2.8423 19.21275,6.19271 27.22395,8.04362 20.2751,4.84242 49.1352,9.76313 68.5908,5.37883 2.784,-0.75004 6.2931,-1.56079 7.7982,-1.80163 11.4335,-2.24246 22.1348,-6.99994 32.1894,-11.67335 9.033,-4.08771 16.8718,-8.87489 23.7901,-14.52863 7.6233,-6.23001 21.7654,-20.76897 21.7654,-22.37634 0,-0.77795 0.6305,-1.77875 1.4014,-2.22401 0.7707,-0.44525 2.945,-3.77067 4.8314,-7.3898 1.8867,-3.61913 3.8631,-7.26357 4.3922,-8.09875 0.529,-0.83519 2.2455,-5.39074 3.8145,-10.12345 1.5688,-4.73271 3.2768,-9.51603 3.7955,-10.62961 1.5343,-3.29453 4.0378,-22.9109 4.0216,-31.5126 -0.015,-7.38321 -1.867,-18.37167 -3.9046,-23.15399 -6.8664,-16.11441 -9.6787,-19.64194 -19.5151,-24.47799 -16.2279,-7.97834 -32.5825,-9.21613 -56.6581,-4.28814 -5.7816,1.18344 -11.8787,2.74378 -13.5491,3.46742 -1.6703,0.72364 -5.7703,2.46535 -9.1111,3.87045 -3.3407,1.4051 -8.124,3.71159 -10.6296,5.12555 -2.5055,1.41393 -5.8662,3.31045 -7.4682,4.21447 -8.946,5.04857 -44.3871,41.95239 -40.2895,41.95239 14.8846,-9.21698 30.7541,-17.5834 47.2515,-24.84142 2.2272,-0.96136 5.8716,-2.58131 8.0988,-3.59987 2.2272,-1.01856 6.3641,-2.44185 9.1931,-3.16285 14.1809,-6.39597 31.6939,-8.27885 44.9673,-8.34732 11.4327,-0.0326 13.1422,0.2039 17.7077,2.45042 6.2585,0.44874 26.0694,27.97603 11.9624,24.1578 -5.992,-1.65446 -22.4634,1.30438 -34.2257,6.14815 -1.1135,0.45857 -4.5302,1.86746 -7.5926,3.13086 -15.3874,6.78088 -29.8501,13.11187 -43.6798,19.59886 -6.3211,2.97615 -13.9984,6.25664 -17.0608,7.28999 -3.4543,1.1656 -4.8645,2.0278 -3.7149,2.27129 20.6263,-2.21788 41.4795,-11.9796 60.4062,-16.48665 1.9488,-0.40936 4.0153,-1.12227 4.5924,-1.58423 0.577,-0.46198 6.3335,-1.60003 12.792,-2.52901 10.9645,-1.57707 12.2956,-1.5771 20.0767,-4.5e-4 35.2817,13.8793 0.7445,30.87804 -16.8599,36.2432 -2.1437,0.91089 -5.492,2.14271 -7.4408,2.73739 -1.9487,0.59467 -6.376,1.98913 -9.8384,3.0988 -3.4623,1.10966 -7.2507,2.01757 -8.4183,2.01757 -1.1678,0 -3.1183,0.53849 -4.3345,1.19665 -4.8666,2.63369 -34.6644,6.98066 -48.2728,7.04215 l -5.5679,0.0252 4.0494,1.4262 c 9.5312,3.35689 19.4246,4.69905 35.432,4.80682 16.7733,0.11293 26.3111,-1.03783 37.7767,-4.55788 10.2408,-3.14401 10.4416,-2.26532 1.5724,6.88197 -7.701,7.94237 -21.9162,18.17951 -29.6798,21.37395 -1.9774,0.81363 -4.9619,2.0826 -6.6323,2.81994 -2.7448,1.21165 -11.2327,3.41126 -19.2345,4.98461 -26.7761,4.04213 -34.387,2.03456 -52.7707,-16.0279 -2.8547,-2.84308 -6.1917,-6.06798 -7.4153,-7.16644 l -2.225,-1.99719 0.696,2.77291 c 0.3827,1.52511 1.8974,5.03834 3.366,7.80718 1.4685,2.76882 3.9978,7.5457 5.6206,10.61525 1.6228,3.06956 2.6429,5.88875 2.2668,6.26487 -0.9885,0.9884 -15.0649,-1.3717 -23.393,-3.92216 -3.9232,-1.20142 -7.5885,-2.24405 -8.14529,-2.31696 -1.0504,-0.13755 -1.49203,-0.3155 -10.50247,-4.23212 -2.99249,-1.30077 -5.86293,-2.365 -6.3789,-2.365 -1.47673,0 -24.07574,-13.91918 -29.68647,-18.28455 -7.4085,-5.76406 -14.16505,-12.24876 -15.63359,-15.00464 -1.66001,-3.11503 -0.66135,-9.51733 2.22189,-14.24425 1.20428,-1.97447 2.55078,-3.7418 2.99208,-3.92739 0.44131,-0.18561 0.80235,-0.79789 0.80235,-1.36066 0,-4.29266 28.75803,-35.02149 42.01229,-44.89137 2.22715,-1.65846 4.19143,-3.32765 4.36506,-3.70927 0.17356,-0.38164 2.67915,-2.2022 5.5679,-4.04568 5.01872,-3.20281 6.35939,-4.19232 11.02555,-8.13779 4.7539,-4.3463 13.9493,-7.92616 18.0168,-11.94884 0.2784,-0.30187 3.0117,-2.11881 6.074,-4.03764 3.0624,-1.91882 6.1699,-4.06777 6.9057,-4.77541 0.7357,-0.70766 1.783,-1.28665 2.3272,-1.28665 0.5443,0 3.5866,-1.78044 6.761,-3.95654 3.1743,-2.1761 9.8715,-6.56493 14.8826,-9.75297 5.0111,-3.18802 10.843,-6.98814 12.9596,-8.44467 2.1167,-1.45655 4.6171,-3.10381 5.5566,-3.6606 0.9395,-0.55679 7.6354,-5.38205 14.8799,-10.72278 14.4143,-10.62652 24.2486,-19.74046 30.303,-28.08367 21.4588,-27.0947 14.0427,-66.04546 -12.4973,-80.7059 -7.7671,-3.90117 -13.1343,-4.95663 -24.8807,-4.89265 -16.9223,-0.32614 -36.946,11.69421 -48.1408,21.65206 -14.3443,13.28278 -22.9177,22.29019 -26.739,28.09255 -1.5585,2.36635 -3.2474,4.30246 -3.7532,4.30246 -0.5058,0 -2.3356,2.27778 -4.0662,5.06172 -1.73053,2.78395 -3.53396,5.06173 -4.00749,5.06173 -0.47362,0 -0.86106,0.62754 -0.86106,1.39456 0,0.767 -0.64134,1.92685 -1.4253,2.57742 -0.78388,0.65057 -2.17193,2.75635 -3.08449,4.67951 -0.91257,1.92315 -2.06276,3.49664 -2.5559,3.49664 -0.49313,0 -1.18493,0.90842 -1.5373,2.01869 -0.35246,1.11029 -1.19651,2.59084 -1.87576,3.29012 -1.69498,1.74495 -24.23592,35.85908 -26.59298,40.24668 -1.04693,1.94876 -2.13273,3.77098 -2.41287,4.04938 -0.82639,0.82128 -7.08325,11.22403 -7.08325,11.77677 0,0.27855 -1.13884,1.99961 -2.53086,3.82458 -1.39193,1.82497 -2.53086,3.63868 -2.53086,4.03047 0,0.39177 -1.571,3.1682 -3.49113,6.16983 -1.92013,3.00162 -4.48687,7.42139 -5.70387,9.82172 -1.68879,3.39401 -4.2364,6.69582 -5.73683,9.60477 -2.95524,5.76323 -4.7019,8.83521 -5.36664,9.43845 -0.3067,0.27839 -1.82903,3.01172 -3.38277,6.07407 -11.50781,25.16005 -29.86283,47.11452 -40.60262,68.35778 -5.1823,10.68105 -13.89079,19.89135 -19.21932,28.86415 -5.54687,7.27949 -10.61988,14.7536 -15.94369,21.35629 -1.5224,1.87509 -5.16684,6.38078 -8.09875,10.01263 -2.93192,3.63185 -6.69743,8.17843 -8.3678,10.1035 -5.4733,6.3079 -29.25724,29.81874 -33.81108,33.42296 -4.69197,5.14368 -11.29066,8.53994 -16.06234,11.93287 -5.3004,4.31947 -11.76741,6.72674 -17.44748,10.3433 -10.87703,4.84124 -26.35226,14.25542 -37.63709,15.16178 -0.45758,0 -0.83199,-0.36444 -0.83199,-0.80987 z m 261.18483,-21.53892 c -13.2626,-1.31746 -40.19064,-6.30492 -49.1396,-9.10136 -1.6928,-0.52899 -6.24835,-1.6749 -10.12344,-2.54645 -3.87501,-0.87155 -10.91769,-2.4725 -15.65044,-3.55769 -17.68128,-4.05417 -25.31071,-5.0628 -44.79729,-5.92232 -15.41654,-0.68 -22.83419,-0.55439 -32.39501,0.54861 -6.82013,0.78679 -13.00272,1.65477 -13.73914,1.92884 -3.15268,1.17325 -0.37181,-2.91436 3.36366,-4.94422 7.17995,-3.90163 35.15839,-23.5981 41.15139,-28.9701 0.93176,-0.83518 4.5647,-4.02406 8.07332,-7.08641 3.50863,-3.06234 13.44928,-12.51511 22.09033,-21.00614 8.64113,-8.49104 16.20463,-15.43825 16.80799,-15.43825 0.60328,0 2.4519,1.48055 4.10809,3.29012 14.51743,13.99959 23.17546,19.40374 39.51261,32.58659 1.74674,1.4258 3.44627,2.59237 3.77661,2.59237 0.33035,0 3.10004,1.59884 6.15489,3.55298 4.74053,3.03248 26.38307,13.84423 38.01592,18.99119 5.7337,2.53691 18.8518,6.72868 23.2663,7.4346 l 4.0866,0.65347 -3.6331,3.10325 c -1.9981,1.70678 -4.5867,4.95063 -5.7524,7.20854 -4.183,5.75819 -0.029,14.20159 -0.4289,17.10583 -0.8542,0.85421 -24.82725,0.56208 -34.74839,-0.42345 z M 739.72544,664.50288 c -0.5627,-2.22716 -1.31491,-9.06048 -1.67158,-15.18517 -1.21595,-20.87658 -5.6228,-43.07046 -13.87001,-69.85175 -1.71459,-5.5679 -3.47404,-11.03456 -3.90984,-12.14813 -9.57233,-22.37558 -16.21044,-48.41568 -32.33379,-67.3209 -0.30508,-0.27839 -1.31564,-2.15374 -2.24562,-4.16743 -1.58986,-3.44269 -1.58452,-3.83555 0.089,-6.58024 16.86395,-23.3729 37.20537,36.5458 41.78819,48.20441 9.22924,16.33745 -14.79858,-51.53607 -19.55322,-61.00922 -3.51875,-6.68697 -3.34325,-10.17567 0.78849,-15.67586 3.15398,-4.19857 4.71169,-4.14552 7.4302,0.25308 14.52219,22.74813 22.08755,48.28177 27.22728,72.88879 1.65644,7.79505 3.77994,19.18393 4.71891,25.30861 2.00266,13.06385 3.43792,51.55404 2.30271,61.753 -1.49211,13.4057 -3.01605,23.28785 -3.90287,25.30861 -0.48876,1.11358 -2.00152,6.58024 -3.36171,12.14813 l -2.4732,10.12344 z m 115.70472,-30.88366 c 15.63318,-21.17201 33.74317,-43.91772 47.54098,-65.54395 2.35064,-3.50096 4.9241,-7.42265 6.60275,-10.6278 6.05402,-9.47385 11.04198,-17.38518 16.61986,-26.71673 1.61271,-2.70547 4.68772,-7.68412 6.83333,-11.06368 2.14568,-3.37954 3.90125,-6.65968 3.90125,-7.28919 0,-0.62949 0.57015,-1.50885 1.26705,-1.95411 0.69689,-0.44525 1.93325,-2.17622 2.7475,-3.84659 0.81425,-1.67037 2.24392,-4.17592 3.17722,-5.5679 0.93322,-1.39197 1.63295,-2.88823 1.55496,-3.32502 -0.0778,-0.43678 0.68062,-1.80345 1.68576,-3.03703 1.66996,-2.04947 4.3351,-6.03837 10.59114,-15.85217 1.26244,-1.98031 2.77148,-4.73017 3.35346,-6.11081 0.58197,-1.38064 1.38634,-2.7473 1.78731,-3.03704 0.40105,-0.28972 2.30045,-3.03232 4.22083,-6.09466 1.92045,-3.06235 3.84164,-5.71975 4.26926,-5.90534 0.42769,-0.18561 0.77756,-0.84418 0.77756,-1.46353 0,-1.31538 14.14998,-22.33378 15.37143,-22.83273 2.44267,-3.90472 4.41618,-8.85717 7.88026,-12.31686 0.29609,-0.2784 2.13289,-2.89696 4.08161,-5.81903 3.77762,-5.34875 7.67912,-9.91354 10.87802,-14.68095 2.3215,-3.47993 5.9487,-8.20716 8.0604,-10.50496 7.7323,-10.39198 19.647,-22.59967 23.3838,-26.10529 6.649,-6.29528 10.8769,-8.88998 20.8332,-12.78586 9.3606,-3.66273 11.5478,-2.94286 6.705,2.20675 -3.6881,3.92173 -14.7059,19.37391 -21.1956,29.72642 -2.4434,3.89753 -6.1924,9.72016 -8.3314,12.93917 -2.139,3.21902 -3.889,6.17269 -3.889,6.56371 0,0.82503 8.6573,-8.52372 11.6419,-12.57173 1.1136,-1.51034 3.3263,-4.14327 4.917,-5.85095 1.5908,-1.70769 5.163,-5.9521 7.9381,-9.43204 2.7752,-3.47993 5.4598,-6.32715 5.9657,-6.32715 0.506,0 0.92,-0.64536 0.92,-1.43416 0,-0.78878 0.3416,-1.58599 0.7592,-1.7716 0.4176,-0.18559 3.0345,-3.07077 5.8152,-6.41151 7.1609,-8.60288 7.7514,-9.18062 11.1416,-10.90183 4.0967,-2.07994 7.2983,-2.31606 12.269,-0.90487 9.3244,2.64721 14.6131,11.11281 10.962,17.54674 -0.8532,1.50346 -44.903,47.24796 -52.589,54.61221 -1.6704,1.60045 -2.5158,2.91201 -1.8787,2.91458 12.3287,-7.87451 23.9402,-16.73741 34.7107,-24.28718 4.3282,-3.02603 21.714,-18.23513 22.172,-19.39597 0.583,-1.47761 3.973,-0.92974 4.616,0.74601 1.7394,4.53303 0.6488,6.6066 -13.8009,26.23815 -19.9527,22.31544 -43.7321,41.975 -68.923,57.98974 -2.3262,1.51198 -4.685,3.22882 -5.2417,3.81518 -0.5568,0.58638 -3.0623,2.4077 -5.5679,4.04738 -34.82648,21.36451 -63.88911,51.11574 -88.33122,78.55528 -1.80732,2.03043 -5.56377,6.56182 -8.34771,10.06976 -2.78395,3.50793 -5.9815,7.34272 -7.10577,8.52174 -3.01759,3.16481 -8.58557,10.30943 -8.58557,11.01673 0,0.33748 -1.83647,2.45004 -4.08104,4.69459 -16.44062,15.94179 -29.82447,43.11619 -48.23934,50.58558 -0.66791,0 -1.49795,-0.45877 -1.84449,-1.0195 z M 703.35572,555.67587 c -0.60215,-1.39198 -4.66958,-7.3359 -9.0387,-13.2087 -4.3692,-5.87281 -9.31057,-12.68123 -10.98094,-15.12982 -1.67037,-2.44858 -4.51538,-6.07132 -6.32229,-8.05052 -1.80691,-1.97922 -3.28745,-3.85818 -3.29012,-4.17549 0,-0.31731 -1.41987,-2.13953 -3.14928,-4.04937 -1.72941,-1.90985 -3.89323,-4.61114 -4.80864,-6.00287 -1.6949,-2.57699 -3.32826,-4.63574 -8.77832,-11.06442 -1.68559,-1.98826 -3.71004,-4.88896 -4.49869,-6.44601 -0.78874,-1.55705 -2.86947,-4.51815 -4.62399,-6.58024 -6.01275,-7.06687 -18.39073,-26.71627 -21.02785,-33.38081 -1.81404,-4.58437 -2.35544,-17.89487 -0.82599,-20.30746 1.53852,-2.42697 6.5519,-0.98981 8.22858,2.35884 0.83636,1.67037 2.63218,4.85925 3.99082,7.08641 1.35857,2.22716 5.61973,9.51604 9.46923,16.19751 3.84942,6.68147 7.83741,13.59898 8.86214,15.37224 1.02482,1.77324 3.02659,5.06698 4.44849,7.31937 1.42181,2.2524 2.5852,4.31187 2.5852,4.57661 0,0.26473 1.14727,2.2099 2.54941,4.32258 1.40221,2.11269 3.11048,4.70185 3.79629,5.75368 0.6858,1.05184 2.25914,3.1525 3.49639,4.66814 1.23725,1.51564 2.0515,2.95376 1.80942,3.19583 -0.24199,0.24207 1.11034,2.92472 3.00521,5.96147 1.89495,3.03675 5.12108,8.71025 7.16918,12.60777 2.04809,3.89753 4.51514,8.2253 5.48221,9.61727 3.7894,5.4543 14.25802,27.90855 13.91277,29.84168 -0.33602,1.88131 -0.45434,1.84213 -1.46053,-0.48369 z m -32.13707,-73.2023 c -2.21032,-4.56028 -5.88618,-11.4803 -8.16865,-15.37783 -2.28239,-3.89752 -5.40843,-9.59196 -6.94663,-12.6543 -1.53827,-3.06234 -4.14899,-7.84567 -5.80162,-10.62962 -1.65263,-2.78394 -4.63006,-8.37068 -6.61644,-12.41498 -1.98646,-4.04428 -4.01374,-7.60172 -4.50517,-7.90541 -0.49136,-0.30369 -0.89338,-1.61105 -0.89338,-2.90526 0,-3.50932 4.11555,-3.87489 10.09243,-0.89646 18.29482,12.51517 24.84103,37.30722 27.88287,58.54182 1.80109,12.43078 1.80562,12.6686 0.2407,12.59388 -0.69601,-0.0332 -3.07388,-3.79155 -5.28411,-8.35184 z"
         id="path3432"
         inkscape:connector-curvature="0"
         sodipodi:nodetypes="cccccscccccccssccccccssccccccssscsssssscsccsccccccsccsscsssscssccsssccsccsccccsccscccsccccccscccccccssscsssssssssssssssssccccccccscccscccccsssccssccssccccssssssscsssssssscccsccccscscscccccccccssssccccsccsssscccsccccssccscsssccsssssccsssscccsssccccccsccccsscccscssccsccsccssssccscsssccsscccccccsssccsccccsccsscsssssssscsssssscssscccscsssccscssccccscsscsscscscsccscssccssscccccccccccssssscsssscccccccccsscssscscccccscsssscsssscssscccssssccscscssscccccccccccccccccccccscccssscssccssscccccssccscccssccccccscccccccsscccccccssssssccsccccsccscccscccsssscsssssscccccsscssssscccsscccccsssscssccccsscsscssccccscsscccccccssccccccsssssssscsscccsssscsccccscccccccsccscscccccccccsssccscscccsccccccssssssscsscssssscccccccssscscsccssscscscsscscsccscssccsssccccsccccs" />
    </g>
    <g
       transform="matrix(0.59567932,0,0,0.59567932,-76.447633,162.27102)"
       style="font-style:normal;font-weight:normal;font-size:40px;line-height:125%;font-family:sans-serif;letter-spacing:0px;word-spacing:0px;fill:#808080;fill-opacity:1;stroke:none;stroke-width:1px;stroke-linecap:butt;stroke-linejoin:miter;stroke-opacity:1"
       id="flowRoot4243">
      <path
         d="m 811.64062,1105.8075 -5.76171,0 0,-24.1211 -7.40235,0 0,-5.0391 20.56641,0 0,5.0391 -7.40235,0 0,24.1211 z"
         style="font-style:normal;font-variant:normal;font-weight:bold;font-stretch:normal;font-family:monospace;-inkscape-font-specification:'monospace Bold';text-align:center;text-anchor:middle;fill:#808080"
         id="path4264"
         inkscape:connector-curvature="0" />
      <path
         d="m 836.54297,1092.0379 q 0.85937,0.1758 1.48437,0.8203 0.64453,0.625 1.5625,2.461 l 5.27344,10.4883 -6.32812,0 -3.51563,-7.3633 q -0.15625,-0.3125 -0.41016,-0.8594 -1.54296,-3.3008 -3.63281,-3.3008 l -1.83594,0 0,11.5235 -5.76171,0 0,-29.1602 8.32031,0 q 5.625,0 8.0664,1.9922 2.46094,1.9922 2.46094,6.4844 0,3.0078 -1.46484,4.7851 -1.46485,1.7774 -4.21875,2.1289 z m -7.40235,-10.5468 0,7.9492 2.71485,0 q 2.36328,0 3.3789,-0.918 1.03516,-0.9375 1.03516,-3.0664 0,-2.1289 -1.01562,-3.0469 -1.01563,-0.9179 -3.39844,-0.9179 l -2.71485,0 z"
         style="font-style:normal;font-variant:normal;font-weight:bold;font-stretch:normal;font-family:monospace;-inkscape-font-specification:'monospace Bold';text-align:center;text-anchor:middle;fill:#808080"
         id="path4266"
         inkscape:connector-curvature="0" />
      <path
         d="m 856.875,1081.9207 -2.71484,11.9336 5.44921,0 -2.73437,-11.9336 z m -3.51563,-5.2734 7.05079,0 7.87109,29.1602 -5.76172,0 -1.79687,-7.2071 -7.71485,0 -1.75781,7.2071 -5.76172,0 7.87109,-29.1602 z"
         style="font-style:normal;font-variant:normal;font-weight:bold;font-stretch:normal;font-family:monospace;-inkscape-font-specification:'monospace Bold';text-align:center;text-anchor:middle;fill:#808080"
         id="path4268"
         inkscape:connector-curvature="0" />
      <path
         d="m 871.58203,1076.6473 19.72656,0 0,4.7656 -13.51562,19.3164 13.78906,0 0,5.0782 -20.42969,0 0,-4.7657 13.10547,-19.3164 -12.67578,0 0,-5.0781 z"
         style="font-style:normal;font-variant:normal;font-weight:bold;font-stretch:normal;font-family:monospace;-inkscape-font-specification:'monospace Bold';text-align:center;text-anchor:middle;fill:#808080"
         id="path4270"
         inkscape:connector-curvature="0" />
      <path
         d="m 914.41406,1105.8075 -18.16406,0 0,-29.1602 18.16406,0 0,5.0781 -12.40234,0 0,6.2891 11.23047,0 0,5.0781 -11.23047,0 0,7.6367 12.40234,0 0,5.0782 z"
         style="font-style:normal;font-variant:normal;font-weight:bold;font-stretch:normal;font-family:monospace;-inkscape-font-specification:'monospace Bold';text-align:center;text-anchor:middle;fill:#808080"
         id="path4272"
         inkscape:connector-curvature="0" />
      <path
         d="m 919.35547,1076.6473 6.1914,0 8.125,21.1914 0,-21.1914 5.07813,0 0,29.1602 -6.15234,0 -8.16407,-21.1914 0,21.1914 -5.07812,0 0,-29.1602 z"
         style="font-style:normal;font-variant:normal;font-weight:bold;font-stretch:normal;font-family:monospace;-inkscape-font-specification:'monospace Bold';text-align:center;text-anchor:middle;fill:#808080"
         id="path4274"
         inkscape:connector-curvature="0" />
      <path
         d="m 949.53125,1081.8426 0,18.7696 1.5625,0 q 3.39844,0 4.84375,-2.129 1.44531,-2.1484 1.44531,-7.2851 0,-5.0977 -1.44531,-7.2266 -1.44531,-2.1289 -4.84375,-2.1289 l -1.5625,0 z m -5.76172,-5.1953 6.17188,0 q 7.14843,0 10.29296,3.418 3.14454,3.3984 3.14454,11.1328 0,7.7539 -3.14454,11.1914 -3.14453,3.418 -10.29296,3.418 l -6.17188,0 0,-29.1602 z"
         style="font-style:normal;font-variant:normal;font-weight:bold;font-stretch:normal;font-family:monospace;-inkscape-font-specification:'monospace Bold';text-align:center;text-anchor:middle;fill:#808080"
         id="path4276"
         inkscape:connector-curvature="0" />
      <path
         d="m 977.1875,1081.2957 q -2.20703,0 -3.22266,2.3633 -1.01562,2.3438 -1.01562,7.5977 0,5.2344 1.01562,7.5976 1.01563,2.3438 3.22266,2.3438 2.22656,0 3.24219,-2.3438 1.01562,-2.3632 1.01562,-7.5976 0,-5.2539 -1.01562,-7.5977 -1.01563,-2.3633 -3.24219,-2.3633 z m -10.23438,9.961 q 0,-7.4805 2.57813,-11.3086 2.59766,-3.8281 7.65625,-3.8281 5.07812,0 7.65625,3.8281 2.59766,3.8281 2.59766,11.3086 0,7.4609 -2.59766,11.289 -2.57813,3.8282 -7.65625,3.8282 -5.05859,0 -7.65625,-3.8282 -2.57813,-3.8281 -2.57813,-11.289 z"
         style="font-style:normal;font-variant:normal;font-weight:bold;font-stretch:normal;font-family:monospace;-inkscape-font-specification:'monospace Bold';text-align:center;text-anchor:middle;fill:#808080"
         id="path4278"
         inkscape:connector-curvature="0" />
      <path
         d="m 1023.2422,1093.0145 q -4.3555,-1.6602 -5.8985,-3.4766 -1.5429,-1.8359 -1.5429,-4.9218 0,-3.9649 2.539,-6.2305 2.5391,-2.2656 6.9727,-2.2656 2.0117,0 4.0234,0.4687 2.0118,0.4492 3.9844,1.3477 l 0,5.625 q -1.8555,-1.3086 -3.7695,-1.9922 -1.9141,-0.6836 -3.7891,-0.6836 -2.0898,0 -3.2031,0.8398 -1.1133,0.8399 -1.1133,2.4024 0,1.2109 0.8008,2.0117 0.8203,0.7812 3.3984,1.7383 l 2.4805,0.9375 q 3.5156,1.289 5.1758,3.4179 1.6601,2.129 1.6601,5.3711 0,4.4141 -2.6171,6.6016 -2.5977,2.168 -7.8711,2.168 -2.168,0 -4.3555,-0.5274 -2.168,-0.5078 -4.1992,-1.5234 l 0,-5.957 q 2.3047,1.6406 4.4531,2.4414 2.168,0.8007 4.2773,0.8007 2.1289,0 3.3008,-0.957 1.1719,-0.9765 1.1719,-2.7148 0,-1.3086 -0.7813,-2.2852 -0.7812,-0.9961 -2.2656,-1.5625 l -2.832,-1.0742 z"
         style="font-style:normal;font-variant:normal;font-weight:bold;font-stretch:normal;font-family:monospace;-inkscape-font-specification:'monospace Bold';text-align:center;text-anchor:middle;fill:#808080"
         id="path4280"
         inkscape:connector-curvature="0" />
      <path
         d="m 1049.375,1081.2957 q -2.207,0 -3.2227,2.3633 -1.0156,2.3438 -1.0156,7.5977 0,5.2344 1.0156,7.5976 1.0157,2.3438 3.2227,2.3438 2.2266,0 3.2422,-2.3438 1.0156,-2.3632 1.0156,-7.5976 0,-5.2539 -1.0156,-7.5977 -1.0156,-2.3633 -3.2422,-2.3633 z m -10.2344,9.961 q 0,-7.4805 2.5782,-11.3086 2.5976,-3.8281 7.6562,-3.8281 5.0781,0 7.6563,3.8281 2.5976,3.8281 2.5976,11.3086 0,7.4609 -2.5976,11.289 -2.5782,3.8282 -7.6563,3.8282 -5.0586,0 -7.6562,-3.8282 -2.5782,-3.8281 -2.5782,-11.289 z"
         style="font-style:normal;font-variant:normal;font-weight:bold;font-stretch:normal;font-family:monospace;-inkscape-font-specification:'monospace Bold';text-align:center;text-anchor:middle;fill:#808080"
         id="path4282"
         inkscape:connector-curvature="0" />
      <path
         d="m 1065.8008,1105.8075 0,-29.1602 5.7617,0 0,24.082 12.3242,0 0,5.0782 -18.0859,0 z"
         style="font-style:normal;font-variant:normal;font-weight:bold;font-stretch:normal;font-family:monospace;-inkscape-font-specification:'monospace Bold';text-align:center;text-anchor:middle;fill:#808080"
         id="path4284"
         inkscape:connector-curvature="0" />
      <path
         d="m 1087.5391,1095.0457 0,-18.3984 5.7617,0 0,19.8438 q 0,2.1875 1.1133,3.4375 1.1132,1.2304 3.0859,1.2304 1.9727,0 3.0859,-1.2304 1.1133,-1.25 1.1133,-3.4375 l 0,-19.8438 5.7617,0 0,18.3984 q 0,5.9375 -2.3632,8.6329 -2.3633,2.6953 -7.5977,2.6953 -5.2148,0 -7.5977,-2.6953 -2.3632,-2.6954 -2.3632,-8.6329 z"
         style="font-style:normal;font-variant:normal;font-weight:bold;font-stretch:normal;font-family:monospace;-inkscape-font-specification:'monospace Bold';text-align:center;text-anchor:middle;fill:#808080"
         id="path4286"
         inkscape:connector-curvature="0" />
      <path
         d="m 1125.625,1105.8075 q 1.1133,1.2109 1.6406,2.2461 0.5469,1.0351 0.5469,1.9531 0,1.8555 -1.2109,2.7344 -1.1914,0.8984 -3.6719,0.8984 -0.9375,0 -1.9336,-0.1367 -0.9766,-0.1172 -2.0117,-0.3711 l 0,-3.0469 q 0.8789,0.332 1.6992,0.5078 0.8203,0.1758 1.5234,0.1758 1.1328,0 1.7578,-0.4492 0.6446,-0.4492 0.6446,-1.2305 0,-0.5078 -0.4102,-1.3086 -0.4101,-0.8008 -1.3086,-1.9726 l 2.7344,0 z m 5.0195,-0.8399 q -1.3672,0.7031 -2.8711,1.0547 -1.5039,0.3516 -3.164,0.3516 -5.8985,0 -9.0039,-3.8867 -3.1055,-3.8868 -3.1055,-11.2305 0,-7.3633 3.1055,-11.25 3.1054,-3.8867 9.0039,-3.8867 1.6601,0 3.1836,0.3515 1.5234,0.3516 2.8515,1.0547 l 0,6.4063 q -1.4843,-1.3672 -2.8906,-1.9922 -1.3867,-0.6446 -2.8711,-0.6446 -3.164,0 -4.7851,2.5196 -1.6016,2.5 -1.6016,7.4414 0,4.9219 1.6016,7.4414 1.6211,2.5 4.7851,2.5 1.4844,0 2.8711,-0.625 1.4063,-0.6445 2.8906,-2.0117 l 0,6.4062 z"
         style="font-style:normal;font-variant:normal;font-weight:bold;font-stretch:normal;font-family:monospace;-inkscape-font-specification:'monospace Bold';text-align:center;text-anchor:middle;fill:#808080"
         id="path4288"
         inkscape:connector-curvature="0" />
      <path
         d="m 1145.625,1081.2957 q -2.207,0 -3.2227,2.3633 -1.0156,2.3438 -1.0156,7.5977 0,5.2344 1.0156,7.5976 1.0157,2.3438 3.2227,2.3438 2.2266,0 3.2422,-2.3438 1.0156,-2.3632 1.0156,-7.5976 0,-5.2539 -1.0156,-7.5977 -1.0156,-2.3633 -3.2422,-2.3633 z m -10.2344,9.961 q 0,-7.4805 2.5782,-11.3086 2.5976,-3.8281 7.6562,-3.8281 5.0781,0 7.6563,3.8281 2.5976,3.8281 2.5976,11.3086 0,7.4609 -2.5976,11.289 -2.5782,3.8282 -7.6563,3.8282 -5.0586,0 -7.6562,-3.8282 -2.5782,-3.8281 -2.5782,-11.289 z m 10.2735,-18.3399 -1.0547,-0.664 q -0.098,-0.059 -0.2344,-0.1367 -0.8789,-0.5079 -1.4258,-0.5079 -0.6054,0 -0.9961,0.586 -0.3906,0.5859 -0.3906,1.5625 l 0,0.1172 -2.7344,0 0,-0.586 q 0,-2.0703 1.0547,-3.3398 1.0742,-1.2695 2.793,-1.2695 0.7031,0 1.4258,0.2539 0.7422,0.2343 1.4843,0.7031 l 1.1719,0.7617 q 0.4102,0.2734 0.7813,0.4297 0.3906,0.1367 0.7031,0.1367 0.7031,0 1.0742,-0.5859 0.3906,-0.586 0.3906,-1.6992 l 2.7344,0 q 0,0.098 -0.019,0.2929 -0.02,0.1953 -0.02,0.3125 0,2.0703 -1.0546,3.3399 -1.0352,1.25 -2.7539,1.25 -0.7227,0 -1.4258,-0.2149 -0.6836,-0.2148 -1.5039,-0.7422 z"
         style="font-style:normal;font-variant:normal;font-weight:bold;font-stretch:normal;font-family:monospace;-inkscape-font-specification:'monospace Bold';text-align:center;text-anchor:middle;fill:#808080"
         id="path4290"
         inkscape:connector-curvature="0" />
      <path
         d="m 1179.1016,1105.8075 -18.1641,0 0,-29.1602 18.1641,0 0,5.0781 -12.4024,0 0,6.2891 11.2305,0 0,5.0781 -11.2305,0 0,7.6367 12.4024,0 0,5.0782 z"
         style="font-style:normal;font-variant:normal;font-weight:bold;font-stretch:normal;font-family:monospace;-inkscape-font-specification:'monospace Bold';text-align:center;text-anchor:middle;fill:#808080"
         id="path4292"
         inkscape:connector-curvature="0" />
      <path
         d="m 1191.6797,1093.0145 q -4.3555,-1.6602 -5.8984,-3.4766 -1.543,-1.8359 -1.543,-4.9218 0,-3.9649 2.539,-6.2305 2.5391,-2.2656 6.9727,-2.2656 2.0117,0 4.0234,0.4687 2.0118,0.4492 3.9844,1.3477 l 0,5.625 q -1.8555,-1.3086 -3.7695,-1.9922 -1.9141,-0.6836 -3.7891,-0.6836 -2.0898,0 -3.2031,0.8398 -1.1133,0.8399 -1.1133,2.4024 0,1.2109 0.8008,2.0117 0.8203,0.7812 3.3984,1.7383 l 2.4805,0.9375 q 3.5156,1.289 5.1758,3.4179 1.6601,2.129 1.6601,5.3711 0,4.4141 -2.6171,6.6016 -2.5977,2.168 -7.8711,2.168 -2.168,0 -4.3555,-0.5274 -2.168,-0.5078 -4.1992,-1.5234 l 0,-5.957 q 2.3047,1.6406 4.4531,2.4414 2.168,0.8007 4.2773,0.8007 2.1289,0 3.3008,-0.957 1.1719,-0.9765 1.1719,-2.7148 0,-1.3086 -0.7813,-2.2852 -0.7812,-0.9961 -2.2656,-1.5625 l -2.832,-1.0742 z"
         style="font-style:normal;font-variant:normal;font-weight:bold;font-stretch:normal;font-family:monospace;-inkscape-font-specification:'monospace Bold';text-align:center;text-anchor:middle;fill:#808080"
         id="path4294"
         inkscape:connector-curvature="0" />
      <path
         d="m 1251.2891,1105.8075 -18.1641,0 0,-29.1602 18.1641,0 0,5.0781 -12.4024,0 0,6.2891 11.2305,0 0,5.0781 -11.2305,0 0,7.6367 12.4024,0 0,5.0782 z"
         style="font-style:normal;font-variant:normal;font-weight:bold;font-stretch:normal;font-family:monospace;-inkscape-font-specification:'monospace Bold';text-align:center;text-anchor:middle;fill:#808080"
         id="path4296"
         inkscape:connector-curvature="0" />
      <path
         d="m 1255.5859,1076.6473 6.875,0 3.4766,12.793 3.457,-12.793 6.9141,0 0,29.1602 -4.9609,0 0,-23.3594 -3.086,12.7539 -4.5898,0 -3.125,-12.7539 0,23.3594 -4.961,0 0,-29.1602 z"
         style="font-style:normal;font-variant:normal;font-weight:bold;font-stretch:normal;font-family:monospace;-inkscape-font-specification:'monospace Bold';text-align:center;text-anchor:middle;fill:#808080"
         id="path4298"
         inkscape:connector-curvature="0" />
      <path
         d="m 818.71094,1143.0145 q -4.35547,-1.6602 -5.89844,-3.4766 -1.54297,-1.8359 -1.54297,-4.9218 0,-3.9649 2.53906,-6.2305 2.53907,-2.2656 6.97266,-2.2656 2.01172,0 4.02344,0.4687 2.01172,0.4492 3.98437,1.3477 l 0,5.625 q -1.85547,-1.3086 -3.76953,-1.9922 -1.91406,-0.6836 -3.78906,-0.6836 -2.08985,0 -3.20313,0.8398 -1.11328,0.8399 -1.11328,2.4024 0,1.2109 0.80078,2.0117 0.82032,0.7812 3.39844,1.7383 l 2.48047,0.9375 q 3.51562,1.289 5.17578,3.4179 1.66016,2.129 1.66016,5.3711 0,4.4141 -2.61719,6.6016 -2.59766,2.168 -7.87109,2.168 -2.16797,0 -4.35547,-0.5274 -2.16797,-0.5078 -4.19922,-1.5234 l 0,-5.957 q 2.30469,1.6406 4.45312,2.4414 2.16797,0.8007 4.27735,0.8007 2.1289,0 3.30078,-0.957 1.17187,-0.9765 1.17187,-2.7148 0,-1.3086 -0.78125,-2.2852 -0.78125,-0.9961 -2.26562,-1.5625 l -2.83203,-1.0742 z"
         style="font-style:normal;font-variant:normal;font-weight:bold;font-stretch:normal;font-family:monospace;-inkscape-font-specification:'monospace Bold';text-align:center;text-anchor:middle;fill:#808080"
         id="path4300"
         inkscape:connector-curvature="0" />
      <path
         d="m 836.17187,1131.7254 0,-5.0781 17.36329,0 0,5.0781 -5.80079,0 0,19.0039 5.80079,0 0,5.0782 -17.36329,0 0,-5.0782 5.80079,0 0,-19.0039 -5.80079,0 z"
         style="font-style:normal;font-variant:normal;font-weight:bold;font-stretch:normal;font-family:monospace;-inkscape-font-specification:'monospace Bold';text-align:center;text-anchor:middle;fill:#808080"
         id="path4302"
         inkscape:connector-curvature="0" />
      <path
         d="m 866.83594,1143.0145 q -4.35547,-1.6602 -5.89844,-3.4766 -1.54297,-1.8359 -1.54297,-4.9218 0,-3.9649 2.53906,-6.2305 2.53907,-2.2656 6.97266,-2.2656 2.01172,0 4.02344,0.4687 2.01172,0.4492 3.98437,1.3477 l 0,5.625 q -1.85547,-1.3086 -3.76953,-1.9922 -1.91406,-0.6836 -3.78906,-0.6836 -2.08985,0 -3.20313,0.8398 -1.11328,0.8399 -1.11328,2.4024 0,1.2109 0.80078,2.0117 0.82032,0.7812 3.39844,1.7383 l 2.48047,0.9375 q 3.51562,1.289 5.17578,3.4179 1.66016,2.129 1.66016,5.3711 0,4.4141 -2.61719,6.6016 -2.59766,2.168 -7.87109,2.168 -2.16797,0 -4.35547,-0.5274 -2.16797,-0.5078 -4.19922,-1.5234 l 0,-5.957 q 2.30469,1.6406 4.45312,2.4414 2.16797,0.8007 4.27735,0.8007 2.1289,0 3.30078,-0.957 1.17187,-0.9765 1.17187,-2.7148 0,-1.3086 -0.78125,-2.2852 -0.78125,-0.9961 -2.26562,-1.5625 l -2.83203,-1.0742 z"
         style="font-style:normal;font-variant:normal;font-weight:bold;font-stretch:normal;font-family:monospace;-inkscape-font-specification:'monospace Bold';text-align:center;text-anchor:middle;fill:#808080"
         id="path4304"
         inkscape:connector-curvature="0" />
      <path
         d="m 895.85937,1155.8075 -5.76171,0 0,-24.1211 -7.40235,0 0,-5.0391 20.56641,0 0,5.0391 -7.40235,0 0,24.1211 z"
         style="font-style:normal;font-variant:normal;font-weight:bold;font-stretch:normal;font-family:monospace;-inkscape-font-specification:'monospace Bold';text-align:center;text-anchor:middle;fill:#808080"
         id="path4306"
         inkscape:connector-curvature="0" />
      <path
         d="m 926.44531,1155.8075 -18.16406,0 0,-29.1602 18.16406,0 0,5.0781 -12.40234,0 0,6.2891 11.23047,0 0,5.0781 -11.23047,0 0,7.6367 12.40234,0 0,5.0782 z"
         style="font-style:normal;font-variant:normal;font-weight:bold;font-stretch:normal;font-family:monospace;-inkscape-font-specification:'monospace Bold';text-align:center;text-anchor:middle;fill:#808080"
         id="path4308"
         inkscape:connector-curvature="0" />
      <path
         d="m 930.74219,1126.6473 6.875,0 3.47656,12.793 3.45703,-12.793 6.91406,0 0,29.1602 -4.96093,0 0,-23.3594 -3.08594,12.7539 -4.58985,0 -3.125,-12.7539 0,23.3594 -4.96093,0 0,-29.1602 z"
         style="font-style:normal;font-variant:normal;font-weight:bold;font-stretch:normal;font-family:monospace;-inkscape-font-specification:'monospace Bold';text-align:center;text-anchor:middle;fill:#808080"
         id="path4310"
         inkscape:connector-curvature="0" />
      <path
         d="m 965.15625,1131.9207 -2.71484,11.9336 5.44921,0 -2.73437,-11.9336 z m -3.51563,-5.2734 7.05079,0 7.87109,29.1602 -5.76172,0 -1.79687,-7.2071 -7.71485,0 -1.75781,7.2071 -5.76172,0 7.87109,-29.1602 z"
         style="font-style:normal;font-variant:normal;font-weight:bold;font-stretch:normal;font-family:monospace;-inkscape-font-specification:'monospace Bold';text-align:center;text-anchor:middle;fill:#808080"
         id="path4312"
         inkscape:connector-curvature="0" />
      <path
         d="m 987.14844,1143.0145 q -4.35547,-1.6602 -5.89844,-3.4766 -1.54297,-1.8359 -1.54297,-4.9218 0,-3.9649 2.53906,-6.2305 2.53907,-2.2656 6.97266,-2.2656 2.01172,0 4.02344,0.4687 2.01172,0.4492 3.98437,1.3477 l 0,5.625 q -1.85547,-1.3086 -3.76953,-1.9922 -1.91406,-0.6836 -3.78906,-0.6836 -2.08985,0 -3.20313,0.8398 -1.11328,0.8399 -1.11328,2.4024 0,1.2109 0.80078,2.0117 0.82032,0.7812 3.39844,1.7383 l 2.48047,0.9375 q 3.51562,1.289 5.17578,3.4179 1.66016,2.129 1.66016,5.3711 0,4.4141 -2.61719,6.6016 -2.59766,2.168 -7.87109,2.168 -2.16797,0 -4.35547,-0.5274 -2.16797,-0.5078 -4.19922,-1.5234 l 0,-5.957 q 2.30469,1.6406 4.45312,2.4414 2.16797,0.8007 4.27735,0.8007 2.1289,0 3.30078,-0.957 1.17187,-0.9765 1.17187,-2.7148 0,-1.3086 -0.78125,-2.2852 -0.78125,-0.9961 -2.26562,-1.5625 l -2.83203,-1.0742 z"
         style="font-style:normal;font-variant:normal;font-weight:bold;font-stretch:normal;font-family:monospace;-inkscape-font-specification:'monospace Bold';text-align:center;text-anchor:middle;fill:#808080"
         id="path4314"
         inkscape:connector-curvature="0" />
      <path
         d="m 1046.4258,1154.9676 q -1.3672,0.7031 -2.8711,1.0547 -1.5039,0.3516 -3.1641,0.3516 -5.8984,0 -9.0039,-3.8867 -3.1054,-3.8868 -3.1054,-11.2305 0,-7.3633 3.1054,-11.25 3.1055,-3.8867 9.0039,-3.8867 1.6602,0 3.1836,0.3515 1.5235,0.3516 2.8516,1.0547 l 0,6.4063 q -1.4844,-1.3672 -2.8906,-1.9922 -1.3868,-0.6446 -2.8711,-0.6446 -3.1641,0 -4.7852,2.5196 -1.6016,2.5 -1.6016,7.4414 0,4.9219 1.6016,7.4414 1.6211,2.5 4.7852,2.5 1.4843,0 2.8711,-0.625 1.4062,-0.6445 2.8906,-2.0117 l 0,6.4062 z"
         style="font-style:normal;font-variant:normal;font-weight:bold;font-stretch:normal;font-family:monospace;-inkscape-font-specification:'monospace Bold';text-align:center;text-anchor:middle;fill:#808080"
         id="path4316"
         inkscape:connector-curvature="0" />
      <path
         d="m 1061.4063,1131.2957 q -2.2071,0 -3.2227,2.3633 -1.0156,2.3438 -1.0156,7.5977 0,5.2344 1.0156,7.5976 1.0156,2.3438 3.2227,2.3438 2.2265,0 3.2421,-2.3438 1.0157,-2.3632 1.0157,-7.5976 0,-5.2539 -1.0157,-7.5977 -1.0156,-2.3633 -3.2421,-2.3633 z m -10.2344,9.961 q 0,-7.4805 2.5781,-11.3086 2.5977,-3.8281 7.6563,-3.8281 5.0781,0 7.6562,3.8281 2.5977,3.8281 2.5977,11.3086 0,7.4609 -2.5977,11.289 -2.5781,3.8282 -7.6562,3.8282 -5.0586,0 -7.6563,-3.8282 -2.5781,-3.8281 -2.5781,-11.289 z"
         style="font-style:normal;font-variant:normal;font-weight:bold;font-stretch:normal;font-family:monospace;-inkscape-font-specification:'monospace Bold';text-align:center;text-anchor:middle;fill:#808080"
         id="path4318"
         inkscape:connector-curvature="0" />
      <path
         d="m 1075.1172,1126.6473 6.875,0 3.4766,12.793 3.457,-12.793 6.914,0 0,29.1602 -4.9609,0 0,-23.3594 -3.0859,12.7539 -4.5899,0 -3.125,-12.7539 0,23.3594 -4.9609,0 0,-29.1602 z"
         style="font-style:normal;font-variant:normal;font-weight:bold;font-stretch:normal;font-family:monospace;-inkscape-font-specification:'monospace Bold';text-align:center;text-anchor:middle;fill:#808080"
         id="path4320"
         inkscape:connector-curvature="0" />
      <path
         d="m 1118.9453,1155.8075 -18.164,0 0,-29.1602 18.164,0 0,5.0781 -12.4023,0 0,6.2891 11.2304,0 0,5.0781 -11.2304,0 0,7.6367 12.4023,0 0,5.0782 z"
         style="font-style:normal;font-variant:normal;font-weight:bold;font-stretch:normal;font-family:monospace;-inkscape-font-specification:'monospace Bold';text-align:center;text-anchor:middle;fill:#808080"
         id="path4322"
         inkscape:connector-curvature="0" />
      <path
         d="m 1137.3242,1142.0379 q 0.8594,0.1758 1.4844,0.8203 0.6445,0.625 1.5625,2.461 l 5.2734,10.4883 -6.3281,0 -3.5156,-7.3633 q -0.1563,-0.3125 -0.4102,-0.8594 -1.5429,-3.3008 -3.6328,-3.3008 l -1.8359,0 0,11.5235 -5.7617,0 0,-29.1602 8.3203,0 q 5.625,0 8.0664,1.9922 2.4609,1.9922 2.4609,6.4844 0,3.0078 -1.4648,4.7851 -1.4649,1.7774 -4.2188,2.1289 z m -7.4023,-10.5468 0,7.9492 2.7148,0 q 2.3633,0 3.3789,-0.918 1.0352,-0.9375 1.0352,-3.0664 0,-2.1289 -1.0156,-3.0469 -1.0157,-0.9179 -3.3985,-0.9179 l -2.7148,0 z"
         style="font-style:normal;font-variant:normal;font-weight:bold;font-stretch:normal;font-family:monospace;-inkscape-font-specification:'monospace Bold';text-align:center;text-anchor:middle;fill:#808080"
         id="path4324"
         inkscape:connector-curvature="0" />
      <path
         d="m 1166.7383,1154.9676 q -1.3672,0.7031 -2.8711,1.0547 -1.5039,0.3516 -3.1641,0.3516 -5.8984,0 -9.0039,-3.8867 -3.1054,-3.8868 -3.1054,-11.2305 0,-7.3633 3.1054,-11.25 3.1055,-3.8867 9.0039,-3.8867 1.6602,0 3.1836,0.3515 1.5235,0.3516 2.8516,1.0547 l 0,6.4063 q -1.4844,-1.3672 -2.8906,-1.9922 -1.3868,-0.6446 -2.8711,-0.6446 -3.1641,0 -4.7852,2.5196 -1.6016,2.5 -1.6016,7.4414 0,4.9219 1.6016,7.4414 1.6211,2.5 4.7852,2.5 1.4843,0 2.8711,-0.625 1.4062,-0.6445 2.8906,-2.0117 l 0,6.4062 z"
         style="font-style:normal;font-variant:normal;font-weight:bold;font-stretch:normal;font-family:monospace;-inkscape-font-specification:'monospace Bold';text-align:center;text-anchor:middle;fill:#808080"
         id="path4326"
         inkscape:connector-curvature="0" />
      <path
         d="m 1173.0469,1131.7254 0,-5.0781 17.3633,0 0,5.0781 -5.8008,0 0,19.0039 5.8008,0 0,5.0782 -17.3633,0 0,-5.0782 5.8008,0 0,-19.0039 -5.8008,0 z"
         style="font-style:normal;font-variant:normal;font-weight:bold;font-stretch:normal;font-family:monospace;-inkscape-font-specification:'monospace Bold';text-align:center;text-anchor:middle;fill:#808080"
         id="path4328"
         inkscape:connector-curvature="0" />
      <path
         d="m 1205.7813,1131.9207 -2.7149,11.9336 5.4492,0 -2.7343,-11.9336 z m -3.5157,-5.2734 7.0508,0 7.8711,29.1602 -5.7617,0 -1.7969,-7.2071 -7.7148,0 -1.7578,7.2071 -5.7618,0 7.8711,-29.1602 z"
         style="font-style:normal;font-variant:normal;font-weight:bold;font-stretch:normal;font-family:monospace;-inkscape-font-specification:'monospace Bold';text-align:center;text-anchor:middle;fill:#808080"
         id="path4330"
         inkscape:connector-curvature="0" />
      <path
         d="m 1221.1719,1131.7254 0,-5.0781 17.3633,0 0,5.0781 -5.8008,0 0,19.0039 5.8008,0 0,5.0782 -17.3633,0 0,-5.0782 5.8008,0 0,-19.0039 -5.8008,0 z"
         style="font-style:normal;font-variant:normal;font-weight:bold;font-stretch:normal;font-family:monospace;-inkscape-font-specification:'monospace Bold';text-align:center;text-anchor:middle;fill:#808080"
         id="path4332"
         inkscape:connector-curvature="0" />
      <path
         d="m 1251.8359,1143.0145 q -4.3554,-1.6602 -5.8984,-3.4766 -1.543,-1.8359 -1.543,-4.9218 0,-3.9649 2.5391,-6.2305 2.5391,-2.2656 6.9727,-2.2656 2.0117,0 4.0234,0.4687 2.0117,0.4492 3.9844,1.3477 l 0,5.625 q -1.8555,-1.3086 -3.7696,-1.9922 -1.914,-0.6836 -3.789,-0.6836 -2.0899,0 -3.2032,0.8398 -1.1132,0.8399 -1.1132,2.4024 0,1.2109 0.8007,2.0117 0.8204,0.7812 3.3985,1.7383 l 2.4805,0.9375 q 3.5156,1.289 5.1757,3.4179 1.6602,2.129 1.6602,5.3711 0,4.4141 -2.6172,6.6016 -2.5977,2.168 -7.8711,2.168 -2.168,0 -4.3555,-0.5274 -2.1679,-0.5078 -4.1992,-1.5234 l 0,-5.957 q 2.3047,1.6406 4.4531,2.4414 2.168,0.8007 4.2774,0.8007 2.1289,0 3.3008,-0.957 1.1718,-0.9765 1.1718,-2.7148 0,-1.3086 -0.7812,-2.2852 -0.7813,-0.9961 -2.2656,-1.5625 l -2.8321,-1.0742 z"
         style="font-style:normal;font-variant:normal;font-weight:bold;font-stretch:normal;font-family:monospace;-inkscape-font-specification:'monospace Bold';text-align:center;text-anchor:middle;fill:#808080"
         id="path4334"
         inkscape:connector-curvature="0" />
      <path
         d="m 886.95312,1175.4559 q -2.57812,4.668 -3.82812,9.043 -1.25,4.375 -1.25,8.75 0,4.3359 1.25,8.75 1.25,4.3945 3.82812,9.082 l -4.45312,0 q -3.10547,-4.5117 -4.60938,-8.8867 -1.5039,-4.3945 -1.5039,-8.9453 0,-4.5313 1.5039,-8.9258 1.52344,-4.4141 4.60938,-8.8672 l 4.45312,0 z"
         style="font-style:normal;font-variant:normal;font-weight:bold;font-stretch:normal;font-family:monospace;-inkscape-font-specification:'monospace Bold';text-align:center;text-anchor:middle;fill:#808080"
         id="path4336"
         inkscape:connector-curvature="0" />
      <path
         d="m 896.64062,1200.7293 6.44532,0 0,-18.9257 -5.9961,1.4843 0,-5.1953 6.03516,-1.4453 5.56641,0 0,24.082 6.44531,0 0,5.0782 -18.4961,0 0,-5.0782 z"
         style="font-style:normal;font-variant:normal;font-weight:bold;font-stretch:normal;font-family:monospace;-inkscape-font-specification:'monospace Bold';text-align:center;text-anchor:middle;fill:#808080"
         id="path4338"
         inkscape:connector-curvature="0" />
      <path
         d="m 920.99609,1205.4168 0,-5.2539 q 1.54297,0.8985 2.94922,1.3282 1.42578,0.4296 2.73438,0.4296 3.10547,0 4.72656,-2.0703 1.64062,-2.0898 1.73828,-6.2304 -0.91797,1.2695 -2.34375,1.914 -1.42578,0.625 -3.37891,0.625 -3.92578,0 -6.07421,-2.4804 -2.14844,-2.5 -2.14844,-7.0704 0,-4.8828 2.40234,-7.5585 2.40235,-2.6758 6.79688,-2.6758 5.33203,0 7.73437,3.5742 2.42188,3.5547 2.42188,11.5039 0,7.5586 -2.94922,11.3477 -2.94922,3.7695 -8.84766,3.7695 -1.36719,0 -2.83203,-0.293 -1.44531,-0.293 -2.92969,-0.8594 z m 7.5586,-14.082 q 1.85547,0 2.83203,-1.3476 0.99609,-1.3672 0.99609,-3.9454 0,-2.5586 -0.99609,-3.9062 -0.97656,-1.3672 -2.83203,-1.3672 -1.875,0 -2.89063,1.3672 -0.99609,1.3476 -0.99609,3.9062 0,2.5586 0.99609,3.9258 1.01563,1.3672 2.89063,1.3672 z"
         style="font-style:normal;font-variant:normal;font-weight:bold;font-stretch:normal;font-family:monospace;-inkscape-font-specification:'monospace Bold';text-align:center;text-anchor:middle;fill:#808080"
         id="path4340"
         inkscape:connector-curvature="0" />
      <path
         d="m 947.12891,1175.4559 4.45312,0 q 3.08594,4.4531 4.58984,8.8672 1.52344,4.3945 1.52344,8.9258 0,4.5508 -1.5039,8.9453 -1.50391,4.375 -4.60938,8.8867 l -4.45312,0 q 2.57812,-4.6875 3.82812,-9.082 1.25,-4.4141 1.25,-8.75 0,-4.375 -1.25,-8.75 -1.25,-4.375 -3.82812,-9.043 z"
         style="font-style:normal;font-variant:normal;font-weight:bold;font-stretch:normal;font-family:monospace;-inkscape-font-specification:'monospace Bold';text-align:center;text-anchor:middle;fill:#808080"
         id="path4342"
         inkscape:connector-curvature="0" />
      <path
         d="m 969.12109,1205.4168 0,-5.2539 q 1.54297,0.8985 2.94922,1.3282 1.42578,0.4296 2.73438,0.4296 3.10547,0 4.72656,-2.0703 1.64062,-2.0898 1.73828,-6.2304 -0.91797,1.2695 -2.34375,1.914 -1.42578,0.625 -3.37891,0.625 -3.92578,0 -6.07421,-2.4804 -2.14844,-2.5 -2.14844,-7.0704 0,-4.8828 2.40234,-7.5585 2.40235,-2.6758 6.79688,-2.6758 5.33203,0 7.73437,3.5742 2.42188,3.5547 2.42188,11.5039 0,7.5586 -2.94922,11.3477 -2.94922,3.7695 -8.84766,3.7695 -1.36719,0 -2.83203,-0.293 -1.44531,-0.293 -2.92969,-0.8594 z m 7.5586,-14.082 q 1.85547,0 2.83203,-1.3476 0.99609,-1.3672 0.99609,-3.9454 0,-2.5586 -0.99609,-3.9062 -0.97656,-1.3672 -2.83203,-1.3672 -1.875,0 -2.89063,1.3672 -0.99609,1.3476 -0.99609,3.9062 0,2.5586 0.99609,3.9258 1.01563,1.3672 2.89063,1.3672 z"
         style="font-style:normal;font-variant:normal;font-weight:bold;font-stretch:normal;font-family:monospace;-inkscape-font-specification:'monospace Bold';text-align:center;text-anchor:middle;fill:#808080"
         id="path4344"
         inkscape:connector-curvature="0" />
      <path
         d="m 993.18359,1205.4168 0,-5.2539 q 1.54297,0.8985 2.94922,1.3282 1.42578,0.4296 2.73438,0.4296 3.10551,0 4.72651,-2.0703 1.6407,-2.0898 1.7383,-6.2304 -0.9179,1.2695 -2.3437,1.914 -1.4258,0.625 -3.37893,0.625 -3.92578,0 -6.07421,-2.4804 -2.14844,-2.5 -2.14844,-7.0704 0,-4.8828 2.40234,-7.5585 2.40235,-2.6758 6.79684,-2.6758 5.3321,0 7.7344,3.5742 2.4219,3.5547 2.4219,11.5039 0,7.5586 -2.9492,11.3477 -2.9493,3.7695 -8.84769,3.7695 -1.36719,0 -2.83203,-0.293 -1.44531,-0.293 -2.92969,-0.8594 z m 7.55861,-14.082 q 1.8555,0 2.832,-1.3476 0.9961,-1.3672 0.9961,-3.9454 0,-2.5586 -0.9961,-3.9062 -0.9765,-1.3672 -2.832,-1.3672 -1.87501,0 -2.89064,1.3672 -0.99609,1.3476 -0.99609,3.9062 0,2.5586 0.99609,3.9258 1.01563,1.3672 2.89064,1.3672 z"
         style="font-style:normal;font-variant:normal;font-weight:bold;font-stretch:normal;font-family:monospace;-inkscape-font-specification:'monospace Bold';text-align:center;text-anchor:middle;fill:#808080"
         id="path4346"
         inkscape:connector-curvature="0" />
      <path
         d="m 1021.7578,1200.7293 12.2852,0 0,5.0782 -18.5157,0 0,-4.9219 3.125,-3.3203 q 5.5665,-5.918 6.7579,-7.2852 1.4648,-1.6797 2.1093,-2.9687 0.6446,-1.3086 0.6446,-2.5782 0,-1.9531 -1.1914,-3.0078 -1.1719,-1.0742 -3.3399,-1.0742 -1.543,0 -3.4766,0.625 -1.914,0.6055 -4.0039,1.7774 l 0,-5.3711 q 2.0899,-0.7618 4.0821,-1.1524 2.0117,-0.4101 3.8476,-0.4101 4.6289,0 7.2657,2.1679 2.6562,2.1485 2.6562,5.8789 0,1.7188 -0.5859,3.2227 -0.5664,1.5039 -1.9727,3.3398 -1.0351,1.3282 -5.6836,5.9766 -2.5195,2.5195 -4.0039,4.0234 z"
         style="font-style:normal;font-variant:normal;font-weight:bold;font-stretch:normal;font-family:monospace;-inkscape-font-specification:'monospace Bold';text-align:center;text-anchor:middle;fill:#808080"
         id="path4348"
         inkscape:connector-curvature="0" />
      <path
         d="m 1041.1133,1176.6473 15.8398,0 0,5.0781 -11.1718,0 0,5.4102 q 0.7031,-0.2734 1.5039,-0.3906 0.8007,-0.1368 1.6992,-0.1368 4.3359,0 7.0312,2.7344 2.6953,2.7344 2.6953,7.1094 0,4.5898 -2.9296,7.2656 -2.9102,2.6563 -7.9493,2.6563 -1.875,0 -3.789,-0.3125 -1.9141,-0.3125 -3.9063,-0.9375 l 0,-5.1953 q 1.6211,0.8007 3.3203,1.2109 1.7188,0.3906 3.4375,0.3906 3.0469,0 4.6289,-1.289 1.5821,-1.3086 1.5821,-3.7891 0,-2.2852 -1.5821,-3.6523 -1.5625,-1.3868 -4.1796,-1.3868 -1.543,0 -3.1055,0.3907 -1.543,0.3711 -3.125,1.1328 l 0,-16.2891 z"
         style="font-style:normal;font-variant:normal;font-weight:bold;font-stretch:normal;font-family:monospace;-inkscape-font-specification:'monospace Bold';text-align:center;text-anchor:middle;fill:#808080"
         id="path4350"
         inkscape:connector-curvature="0" />
      <path
         d="m 1071.0156,1191.2567 q 0,-1.0352 0.7032,-1.7383 0.7031,-0.7031 1.7187,-0.7031 1.0352,0 1.7383,0.7031 0.7031,0.7031 0.7031,1.7383 0,1.0156 -0.7031,1.7187 -0.7031,0.7032 -1.7383,0.7032 -1.0156,0 -1.7187,-0.6836 -0.7032,-0.7032 -0.7032,-1.7383 z m 2.4219,-10.2539 q -1.9922,0 -2.9102,2.4414 -0.9179,2.4414 -0.9179,7.8125 0,5.3515 0.9179,7.793 0.918,2.4414 2.9102,2.4414 2.0117,0 2.9297,-2.4414 0.918,-2.4415 0.918,-7.793 0,-5.3711 -0.918,-7.8125 -0.918,-2.4414 -2.9297,-2.4414 z m -9.6289,10.2539 q 0,-7.5781 2.4023,-11.3477 2.4024,-3.789 7.2266,-3.789 4.8438,0 7.2461,3.7695 2.4023,3.7695 2.4023,11.3672 0,7.5781 -2.4023,11.3476 -2.4023,3.7696 -7.2461,3.7696 -4.8242,0 -7.2266,-3.7696 -2.4023,-3.789 -2.4023,-11.3476 z"
         style="font-style:normal;font-variant:normal;font-weight:bold;font-stretch:normal;font-family:monospace;-inkscape-font-specification:'monospace Bold';text-align:center;text-anchor:middle;fill:#808080"
         id="path4352"
         inkscape:connector-curvature="0" />
      <path
         d="m 1091.3477,1191.452 12.3242,0 0,5.6836 -12.3242,0 0,-5.6836 z"
         style="font-style:normal;font-variant:normal;font-weight:bold;font-stretch:normal;font-family:monospace;-inkscape-font-specification:'monospace Bold';text-align:center;text-anchor:middle;fill:#808080"
         id="path4354"
         inkscape:connector-curvature="0" />
      <path
         d="m 1113.4961,1205.4168 0,-5.2539 q 1.543,0.8985 2.9492,1.3282 1.4258,0.4296 2.7344,0.4296 3.1055,0 4.7266,-2.0703 1.6406,-2.0898 1.7382,-6.2304 -0.9179,1.2695 -2.3437,1.914 -1.4258,0.625 -3.3789,0.625 -3.9258,0 -6.0742,-2.4804 -2.1485,-2.5 -2.1485,-7.0704 0,-4.8828 2.4024,-7.5585 2.4023,-2.6758 6.7968,-2.6758 5.3321,0 7.7344,3.5742 2.4219,3.5547 2.4219,11.5039 0,7.5586 -2.9492,11.3477 -2.9492,3.7695 -8.8477,3.7695 -1.3672,0 -2.832,-0.293 -1.4453,-0.293 -2.9297,-0.8594 z m 7.5586,-14.082 q 1.8555,0 2.832,-1.3476 0.9961,-1.3672 0.9961,-3.9454 0,-2.5586 -0.9961,-3.9062 -0.9765,-1.3672 -2.832,-1.3672 -1.875,0 -2.8906,1.3672 -0.9961,1.3476 -0.9961,3.9062 0,2.5586 0.9961,3.9258 1.0156,1.3672 2.8906,1.3672 z"
         style="font-style:normal;font-variant:normal;font-weight:bold;font-stretch:normal;font-family:monospace;-inkscape-font-specification:'monospace Bold';text-align:center;text-anchor:middle;fill:#808080"
         id="path4356"
         inkscape:connector-curvature="0" />
      <path
         d="m 1137.5586,1205.4168 0,-5.2539 q 1.543,0.8985 2.9492,1.3282 1.4258,0.4296 2.7344,0.4296 3.1055,0 4.7266,-2.0703 1.6406,-2.0898 1.7382,-6.2304 -0.9179,1.2695 -2.3437,1.914 -1.4258,0.625 -3.3789,0.625 -3.9258,0 -6.0742,-2.4804 -2.1485,-2.5 -2.1485,-7.0704 0,-4.8828 2.4024,-7.5585 2.4023,-2.6758 6.7968,-2.6758 5.3321,0 7.7344,3.5742 2.4219,3.5547 2.4219,11.5039 0,7.5586 -2.9492,11.3477 -2.9492,3.7695 -8.8477,3.7695 -1.3672,0 -2.832,-0.293 -1.4453,-0.293 -2.9297,-0.8594 z m 7.5586,-14.082 q 1.8555,0 2.832,-1.3476 0.9961,-1.3672 0.9961,-3.9454 0,-2.5586 -0.9961,-3.9062 -0.9765,-1.3672 -2.832,-1.3672 -1.875,0 -2.8906,1.3672 -0.9961,1.3476 -0.9961,3.9062 0,2.5586 0.9961,3.9258 1.0156,1.3672 2.8906,1.3672 z"
         style="font-style:normal;font-variant:normal;font-weight:bold;font-stretch:normal;font-family:monospace;-inkscape-font-specification:'monospace Bold';text-align:center;text-anchor:middle;fill:#808080"
         id="path4358"
         inkscape:connector-curvature="0" />
      <path
         d="m 1161.3281,1200.7293 6.4453,0 0,-18.9257 -5.9961,1.4843 0,-5.1953 6.0352,-1.4453 5.5664,0 0,24.082 6.4453,0 0,5.0782 -18.4961,0 0,-5.0782 z"
         style="font-style:normal;font-variant:normal;font-weight:bold;font-stretch:normal;font-family:monospace;-inkscape-font-specification:'monospace Bold';text-align:center;text-anchor:middle;fill:#808080"
         id="path4360"
         inkscape:connector-curvature="0" />
      <path
         d="m 1192.4414,1192.7606 -3.0859,0 0,-5.0781 3.0859,0 q 2.1484,0 3.3203,-0.8399 1.1914,-0.8594 1.1914,-2.4023 0,-1.6211 -1.1914,-2.5196 -1.1719,-0.9179 -3.3203,-0.9179 -1.6406,0 -3.5156,0.4101 -1.875,0.4102 -3.8867,1.1914 l 0,-5.2343 q 2.0117,-0.6055 3.9648,-0.918 1.9531,-0.332 3.75,-0.332 4.6094,0 7.1875,2.0117 2.5781,2.0117 2.5781,5.5469 0,2.5976 -1.4843,4.2578 -1.4844,1.6406 -4.2383,2.1484 3.125,0.5469 4.7656,2.5 1.6406,1.9336 1.6406,5.0977 0,4.2382 -2.7148,6.4648 -2.7149,2.2266 -7.8906,2.2266 -2.2071,0 -4.3555,-0.3711 -2.1289,-0.3711 -4.082,-1.0742 l 0,-5.3516 q 1.8359,0.918 3.9648,1.4062 2.1289,0.4688 4.4727,0.4688 2.3437,0 3.7109,-1.0742 1.3672,-1.0938 1.3672,-2.9297 0,-2.2461 -1.3672,-3.457 -1.3672,-1.2305 -3.8672,-1.2305 z"
         style="font-style:normal;font-variant:normal;font-weight:bold;font-stretch:normal;font-family:monospace;-inkscape-font-specification:'monospace Bold';text-align:center;text-anchor:middle;fill:#808080"
         id="path4362"
         inkscape:connector-curvature="0" />
    </g>
  </g>
</svg>
