<svg height="444pt" viewBox="-23 0 444 444.04" width="444pt" xmlns="http://www.w3.org/2000/svg"><path d="m320.019531 376c0 4.417969-3.582031 8-8 8h-22.039062l54.039062 60.039062 54.039063-60.039062h-22.039063c-4.417969 0-8-3.582031-8-8v-136h-48zm0 0"/><path d="m88.019531 72v-61.726562l-75.535156 69.726562h67.535156c4.417969 0 8-3.582031 8-8zm0 0"/><path d="m344.019531 0h-240v72c0 13.253906-10.746093 24-24 24h-79.9999998v296c0 4.417969 3.5820308 8 7.9999998 8h274.839844l-16.800781-18.648438c-2.113282-2.351562-2.648438-5.726562-1.359375-8.613281 1.289062-2.886719 4.160156-4.742187 7.320312-4.738281h32v-136c0-4.417969 3.582031-8 8-8h40v-216c0-4.417969-3.582031-8-8-8zm-288 144h32c4.417969 0 8 3.582031 8 8s-3.582031 8-8 8h-32c-4.417969 0-8-3.582031-8-8s3.582031-8 8-8zm224 208h-224c-4.417969 0-8-3.582031-8-8s3.582031-8 8-8h224c4.417969 0 8 3.582031 8 8s-3.582031 8-8 8zm0-48h-224c-4.417969 0-8-3.582031-8-8s3.582031-8 8-8h224c4.417969 0 8 3.582031 8 8s-3.582031 8-8 8zm0-48h-224c-4.417969 0-8-3.582031-8-8s3.582031-8 8-8h224c4.417969 0 8 3.582031 8 8s-3.582031 8-8 8zm16-48h-240c-4.417969 0-8-3.582031-8-8s3.582031-8 8-8h240c4.417969 0 8 3.582031 8 8s-3.582031 8-8 8zm0-48h-176c-4.417969 0-8-3.582031-8-8s3.582031-8 8-8h176c4.417969 0 8 3.582031 8 8s-3.582031 8-8 8zm0 0"/></svg>